STARTFONT 2.3
FONT -FontForge-Butcherman-Book-R-Normal--14-140-72-72-P-76-ISO10646-1
SIZE 14 72 72  2
FONTBOUNDINGBOX 21 28 -1 -10
COMMENT "Generated by fontforge, http://fontforge.sourceforge.net"
COMMENT "Copyright (c) 2011, Typomondo, with Reserved Font Name  "Butcherman"."
STARTPROPERTIES 41
FOUNDRY "FontForge"
FAMILY_NAME "Butcherman"
WEIGHT_NAME "Book"
SLANT "R"
SETWIDTH_NAME "Normal"
ADD_STYLE_NAME ""
PIXEL_SIZE 14
POINT_SIZE 140
RESOLUTION_X 72
RESOLUTION_Y 72
SPACING "P"
AVERAGE_WIDTH 76
CHARSET_REGISTRY "ISO10646"
CHARSET_ENCODING "1"
FONTNAME_REGISTRY ""
CHARSET_COLLECTIONS "ISO8859-2 ISO8859-9 ISO8859-4 ISO10646-1"
BITS_PER_PIXEL 2
FONT_NAME "Butcherman-Regular"
FACE_NAME "Butcherman Regular"
COPYRIGHT "Copyright (c) 2011, Typomondo, with Reserved Font Name  "Butcherman"."
FONT_VERSION "001.004"
FONT_ASCENT 11
FONT_DESCENT 3
UNDERLINE_POSITION -1
UNDERLINE_THICKNESS 1
X_HEIGHT 10
CAP_HEIGHT 10
DEFAULT_CHAR 3
RAW_ASCENT 799
RAW_DESCENT 200
NORM_SPACE 2
RELATIVE_WEIGHT 40
RELATIVE_SETWIDTH 50
SUPERSCRIPT_X 0
SUPERSCRIPT_Y 4
SUPERSCRIPT_SIZE 8
SUBSCRIPT_X 0
SUBSCRIPT_Y 1
SUBSCRIPT_SIZE 8
AVG_LOWERCASE_WIDTH 82
AVG_UPPERCASE_WIDTH 78
ENDPROPERTIES
CHARS 331
STARTCHAR NULL.dup1
ENCODING 0
SWIDTH 161 0
DWIDTH 2 0
BBX 1 1 0 0
BITMAP
00
ENDCHAR
STARTCHAR CR
ENCODING 13
SWIDTH 161 0
DWIDTH 2 0
BBX 1 1 0 0
BITMAP
00
ENDCHAR
STARTCHAR space
ENCODING 32
SWIDTH 161 0
DWIDTH 2 0
BBX 1 1 0 0
BITMAP
00
ENDCHAR
STARTCHAR exclam
ENCODING 33
SWIDTH 350 0
DWIDTH 5 0
BBX 5 17 0 0
BITMAP
BF40
7F00
3F00
7F00
3E00
2E00
2E00
2D00
1D00
1D00
1500
0000
6F40
3F40
3F40
3F40
1400
ENDCHAR
STARTCHAR quotedbl
ENCODING 34
SWIDTH 541 0
DWIDTH 8 0
BBX 7 6 0 5
BITMAP
1454
7DB8
3DB8
3C78
2C34
1820
ENDCHAR
STARTCHAR numbersign
ENCODING 35
SWIDTH 583 0
DWIDTH 8 0
BBX 8 13 0 -2
BITMAP
0249
030D
070C
2FFE
2FFD
1E79
1C70
2860
FFF8
BAE4
20C0
6180
0040
ENDCHAR
STARTCHAR dollar
ENCODING 36
SWIDTH 534 0
DWIDTH 7 0
BBX 7 18 0 -4
BITMAP
0100
0240
0240
0240
1FF4
3FFC
7FFC
7FF8
7DB8
7E80
2FE0
05F4
3EF4
2FE0
0640
0200
0300
0100
ENDCHAR
STARTCHAR percent
ENCODING 37
SWIDTH 828 0
DWIDTH 12 0
BBX 11 12 0 -1
BITMAP
000600
3D0A00
BF0D00
7B0D00
671C74
7A28FC
2D34FC
0070FC
00A0EC
0090B4
00C000
018000
ENDCHAR
STARTCHAR ampersand
ENCODING 38
SWIDTH 522 0
DWIDTH 7 0
BBX 7 8 0 1
BITMAP
0680
0780
6BD4
7FF8
7FF8
0780
0780
0100
ENDCHAR
STARTCHAR quotesingle
ENCODING 39
SWIDTH 300 0
DWIDTH 4 0
BBX 4 6 0 5
BITMAP
14
7D
3D
3D
2C
18
ENDCHAR
STARTCHAR parenleft
ENCODING 40
SWIDTH 372 0
DWIDTH 5 0
BBX 5 14 0 -2
BITMAP
0180
0BC0
1F80
3F80
3F40
7D00
7C00
7C00
7C00
7C00
3E00
2F40
0F40
0240
ENDCHAR
STARTCHAR parenright
ENCODING 41
SWIDTH 338 0
DWIDTH 5 0
BBX 4 14 0 -2
BITMAP
50
BD
7F
7F
7F
1F
0F
0F
0F
0E
1E
2D
B8
A0
ENDCHAR
STARTCHAR asterisk
ENCODING 42
SWIDTH 513 0
DWIDTH 7 0
BBX 7 8 0 3
BITMAP
0490
1DD0
0FC0
6FE4
7FE4
0BC0
0ED0
0850
ENDCHAR
STARTCHAR plus
ENCODING 43
SWIDTH 458 0
DWIDTH 6 0
BBX 6 6 0 2
BITMAP
0B00
1B50
7FE0
6FA0
0B00
0600
ENDCHAR
STARTCHAR comma
ENCODING 44
SWIDTH 361 0
DWIDTH 5 0
BBX 5 7 0 -2
BITMAP
6A00
7F40
7F40
7F40
1740
0700
0700
ENDCHAR
STARTCHAR hyphen
ENCODING 45
SWIDTH 478 0
DWIDTH 7 0
BBX 6 3 0 4
BITMAP
2AA0
7FE0
2FE0
ENDCHAR
STARTCHAR period
ENCODING 46
SWIDTH 374 0
DWIDTH 5 0
BBX 5 5 0 0
BITMAP
6F40
3F40
3F80
3F40
1400
ENDCHAR
STARTCHAR slash
ENCODING 47
SWIDTH 291 0
DWIDTH 4 0
BBX 4 12 0 -1
BITMAP
02
06
0A
0D
1C
28
34
30
60
60
90
C0
ENDCHAR
STARTCHAR zero
ENCODING 48
SWIDTH 528 0
DWIDTH 7 0
BBX 7 12 0 -1
BITMAP
0140
1FE0
3FF4
7FF8
7FF8
7DF8
7CF8
3CB8
3CF4
2EF0
1FE0
0280
ENDCHAR
STARTCHAR one
ENCODING 49
SWIDTH 366 0
DWIDTH 5 0
BBX 5 11 0 0
BITMAP
0100
6F40
BF40
1F40
1F40
1F00
1F00
0F00
0F00
0F00
0B00
ENDCHAR
STARTCHAR two
ENCODING 50
SWIDTH 575 0
DWIDTH 8 0
BBX 8 12 0 -1
BITMAP
0540
1FE0
7FF8
7FFC
7FFC
3DF8
29F8
01F4
02E0
1BFA
3FFE
7A59
ENDCHAR
STARTCHAR three
ENCODING 51
SWIDTH 517 0
DWIDTH 7 0
BBX 7 12 0 -1
BITMAP
0500
2FD0
7FF0
7FF4
7FF8
7DF4
15F4
03F0
01B4
1EB4
0FF0
0690
ENDCHAR
STARTCHAR four
ENCODING 52
SWIDTH 466 0
DWIDTH 7 0
BBX 6 14 0 -3
BITMAP
1550
2FC0
2F40
2F00
3E00
3E00
3E90
3DD0
3DD0
7FF0
7FF0
01E0
00C0
00C0
ENDCHAR
STARTCHAR five
ENCODING 53
SWIDTH 583 0
DWIDTH 8 0
BBX 8 12 0 -1
BITMAP
1550
7FFE
7FFE
7FFD
7FFD
7EA8
3D50
3FF0
01B4
1E74
0FF0
0690
ENDCHAR
STARTCHAR six
ENCODING 54
SWIDTH 582 0
DWIDTH 8 0
BBX 8 12 0 -1
BITMAP
0140
2FF4
7FFD
7FFE
7FFD
7EBD
3D7C
2E94
2E7C
1E3C
1FFC
0BE8
ENDCHAR
STARTCHAR seven
ENCODING 55
SWIDTH 624 0
DWIDTH 9 0
BBX 9 13 0 -2
BITMAP
055540
BFFF40
7FFF00
7FFF00
7FFE00
2A7D00
007C00
00B800
00F000
01E000
02D000
038000
014000
ENDCHAR
STARTCHAR eight
ENCODING 56
SWIDTH 459 0
DWIDTH 6 0
BBX 6 12 0 -1
BITMAP
0540
7FE0
7FF0
7FE0
7FE0
39D0
3ED0
1FC0
2AC0
29C0
1FC0
0940
ENDCHAR
STARTCHAR nine
ENCODING 57
SWIDTH 584 0
DWIDTH 8 0
BBX 8 13 0 -2
BITMAP
0140
0FF4
3FFD
7FFD
7FFE
7EBE
3FBE
1FFD
057C
3EB8
1FF0
0550
0100
ENDCHAR
STARTCHAR colon
ENCODING 58
SWIDTH 386 0
DWIDTH 5 0
BBX 5 12 0 0
BITMAP
6B40
3F40
3F80
3F80
1500
0000
0000
6F40
3F40
3F80
3F40
1400
ENDCHAR
STARTCHAR semicolon
ENCODING 59
SWIDTH 375 0
DWIDTH 5 0
BBX 5 14 0 -2
BITMAP
6F40
3F40
3F40
3F40
1500
0000
0000
2A40
3F40
3F40
7F40
1740
0740
0700
ENDCHAR
STARTCHAR less
ENCODING 60
SWIDTH 459 0
DWIDTH 6 0
BBX 6 8 0 1
BITMAP
0690
0FD0
2F80
7F00
7E00
2F40
0FC0
02E0
ENDCHAR
STARTCHAR equal
ENCODING 61
SWIDTH 485 0
DWIDTH 7 0
BBX 5 5 1 4
BITMAP
5540
FF80
1000
AA80
BE80
ENDCHAR
STARTCHAR greater
ENCODING 62
SWIDTH 432 0
DWIDTH 6 0
BBX 6 8 0 1
BITMAP
6A00
3F00
1F80
0BD0
07D0
0F80
2F40
7900
ENDCHAR
STARTCHAR question
ENCODING 63
SWIDTH 577 0
DWIDTH 8 0
BBX 7 13 0 -2
BITMAP
0BD0
3FF4
7FFC
7FFC
3DFC
00F8
01F0
02E0
0180
0140
07C0
07C0
0140
ENDCHAR
STARTCHAR at
ENCODING 64
SWIDTH 930 0
DWIDTH 13 0
BBX 13 15 0 -3
BITMAP
00BF4000
03FAE000
0A557800
18FF9D00
25FFCF00
31FF8B40
70F78B80
70D38B80
70BF8740
74E3C740
34FBFB00
2CAA7900
1E000000
07954000
01BF8000
ENDCHAR
STARTCHAR A
ENCODING 65
SWIDTH 494 0
DWIDTH 7 0
BBX 7 12 0 -2
BITMAP
7FF4
2FE0
1FD0
2FD0
1FD0
1EC0
2DD0
2EC0
2FC0
1EC0
1980
1040
ENDCHAR
STARTCHAR B
ENCODING 66
SWIDTH 517 0
DWIDTH 7 0
BBX 7 12 0 -1
BITMAP
0540
7FF4
2FF8
2FF8
1FF8
1E74
1EB0
1FE0
1EB0
0EB0
0FE0
0150
ENDCHAR
STARTCHAR C
ENCODING 67
SWIDTH 504 0
DWIDTH 7 0
BBX 7 12 0 -1
BITMAP
0140
1FE0
7FF8
BFF8
BFF8
7DF8
7D64
3C00
3CA0
2EF0
1FE0
0580
ENDCHAR
STARTCHAR D
ENCODING 68
SWIDTH 522 0
DWIDTH 7 0
BBX 7 13 0 -2
BITMAP
0040
7FF4
3FFC
2FFC
2FFC
2F78
1E38
1E34
1E74
0FB4
0EF0
0580
0100
ENDCHAR
STARTCHAR E
ENCODING 69
SWIDTH 570 0
DWIDTH 8 0
BBX 8 12 0 -1
BITMAP
0550
7FFD
2FFC
2FF8
2FF4
2E50
1F90
1FD0
1E40
0FA0
0BE0
0510
ENDCHAR
STARTCHAR F
ENCODING 70
SWIDTH 559 0
DWIDTH 8 0
BBX 7 12 0 -1
BITMAP
0500
7FFC
2FF8
1FF8
1FF4
0F64
0FA0
0FF0
0F50
0F40
0F40
0540
ENDCHAR
STARTCHAR G
ENCODING 71
SWIDTH 499 0
DWIDTH 7 0
BBX 7 12 0 -1
BITMAP
0100
2FE0
7FF4
7FF8
7FF8
7DF4
3CB4
3DA0
3DF4
2DB4
1FF0
0690
ENDCHAR
STARTCHAR H
ENCODING 72
SWIDTH 726 0
DWIDTH 10 0
BBX 10 14 0 -3
BITMAP
014500
6F5FD0
2F4FC0
2F5F80
1F5F40
1F1F00
0FAF00
0FFE00
0F6E00
0B6D00
0B6D00
041900
000000
001000
ENDCHAR
STARTCHAR I
ENCODING 73
SWIDTH 401 0
DWIDTH 6 0
BBX 5 12 0 -1
BITMAP
5540
7FC0
2F80
1F80
1F40
1F40
1F40
1F00
0F00
0F00
0B00
0100
ENDCHAR
STARTCHAR J
ENCODING 74
SWIDTH 455 0
DWIDTH 6 0
BBX 7 12 -1 -1
BITMAP
0150
02F8
01F4
01F0
01F0
01E0
01E0
15D0
79D0
3ED0
2F80
0100
ENDCHAR
STARTCHAR K
ENCODING 75
SWIDTH 580 0
DWIDTH 8 0
BBX 8 12 0 -1
BITMAP
1410
7F7D
2F74
1FB0
0FE0
0FE0
0FE0
0BE0
0BF0
0A70
0734
0110
ENDCHAR
STARTCHAR L
ENCODING 76
SWIDTH 416 0
DWIDTH 6 0
BBX 6 12 0 -1
BITMAP
5540
7F40
3E00
3F00
2E00
2E00
2E00
1E00
1E00
1FE0
0FF0
0560
ENDCHAR
STARTCHAR M
ENCODING 77
SWIDTH 740 0
DWIDTH 10 0
BBX 10 12 0 -1
BITMAP
055500
7F9FD0
2FEFC0
2FFF80
1FFF80
1FFF80
1FFF80
0FBB80
0FBB80
0B6B40
0A6A40
040000
ENDCHAR
STARTCHAR N
ENCODING 78
SWIDTH 610 0
DWIDTH 9 0
BBX 8 13 0 -2
BITMAP
0110
7F3E
2F7D
2FBC
2FFC
2FFC
1FF8
1FF8
0EF8
0EB8
0E74
0A64
0500
ENDCHAR
STARTCHAR O
ENCODING 79
SWIDTH 504 0
DWIDTH 7 0
BBX 7 12 0 -1
BITMAP
0100
2FE0
7FF8
BFF8
7FF8
7DF8
7CF8
3CB4
3CF4
2EF0
1FE0
0590
ENDCHAR
STARTCHAR P
ENCODING 80
SWIDTH 545 0
DWIDTH 8 0
BBX 8 12 0 -1
BITMAP
0550
7FF8
2FFD
1FFC
1FFC
1F6C
0F6C
0FB8
0BA0
0B40
0B40
0540
ENDCHAR
STARTCHAR Q
ENCODING 81
SWIDTH 520 0
DWIDTH 7 0
BBX 7 13 0 -2
BITMAP
0140
1FE0
7FF8
BFFC
BFFC
7E7C
7D78
3D78
2E78
1FF4
0BF8
01B8
0010
ENDCHAR
STARTCHAR R
ENCODING 82
SWIDTH 599 0
DWIDTH 8 0
BBX 8 12 0 -1
BITMAP
0150
7FFD
2FFF
1FFF
0FFF
0F5F
0F6E
0BFD
0BBC
077C
076C
0119
ENDCHAR
STARTCHAR S
ENCODING 83
SWIDTH 504 0
DWIDTH 7 0
BBX 7 12 0 -1
BITMAP
0140
1FE0
3FF8
BFF8
BFF8
BDF8
7E40
2FE0
05F4
3DF0
2FE0
0540
ENDCHAR
STARTCHAR T
ENCODING 84
SWIDTH 622 0
DWIDTH 9 0
BBX 8 13 0 -2
BITMAP
0550
7FFF
3FFE
2FFE
2FFD
1BE9
02E0
02E0
02E0
01E0
01E0
01D0
0100
ENDCHAR
STARTCHAR U
ENCODING 85
SWIDTH 637 0
DWIDTH 9 0
BBX 9 12 0 -1
BITMAP
151000
7F2F40
3F3F00
2F3E00
2F3D00
1F3C00
1E3C00
1F3C00
1F7800
0FF800
0BA400
001000
ENDCHAR
STARTCHAR V
ENCODING 86
SWIDTH 570 0
DWIDTH 8 0
BBX 8 12 0 -1
BITMAP
1415
7D7D
2D7C
2DB8
1EB4
1EF0
1EF0
1FE0
0FD0
0FD0
0BC0
0780
ENDCHAR
STARTCHAR W
ENCODING 87
SWIDTH 777 0
DWIDTH 11 0
BBX 11 11 0 0
BITMAP
002140
6F76F4
2F7BE0
0FBFC0
0FFF40
07FF00
03FF00
02FF00
02EE00
01DD00
009C00
ENDCHAR
STARTCHAR X
ENCODING 88
SWIDTH 587 0
DWIDTH 8 0
BBX 8 12 0 -1
BITMAP
0400
7F7E
1FB8
0BF0
07E0
03E0
03D0
03D0
03D0
07E0
07B0
0550
ENDCHAR
STARTCHAR Y
ENCODING 89
SWIDTH 688 0
DWIDTH 10 0
BBX 10 12 0 -1
BITMAP
050400
6F4F90
0BDF40
02FE00
01FC00
00FC00
00BC00
007800
007800
003800
003800
001000
ENDCHAR
STARTCHAR Z
ENCODING 90
SWIDTH 695 0
DWIDTH 10 0
BBX 10 12 0 -1
BITMAP
055400
7FFF90
3FFFC0
2FFF40
1FFF00
19BD00
01F400
02E000
02C000
07F800
0BF400
001000
ENDCHAR
STARTCHAR bracketleft
ENCODING 91
SWIDTH 410 0
DWIDTH 6 0
BBX 6 13 0 -1
BITMAP
3FC0
3FD0
3E90
3C00
3C00
3C00
3C00
7C00
7C00
3C00
3E90
2FC0
1000
ENDCHAR
STARTCHAR backslash
ENCODING 92
SWIDTH 292 0
DWIDTH 4 0
BBX 4 12 0 -1
BITMAP
90
A0
60
70
34
28
1C
0D
09
06
03
02
ENDCHAR
STARTCHAR bracketright
ENCODING 93
SWIDTH 407 0
DWIDTH 6 0
BBX 5 13 0 -1
BITMAP
7F80
BF80
6F80
0780
0780
0780
0780
07C0
07C0
0780
6B80
BF80
0440
ENDCHAR
STARTCHAR asciicircum
ENCODING 94
SWIDTH 523 0
DWIDTH 7 0
BBX 7 5 0 10
BITMAP
0AC0
1FE0
2EF0
3CB8
7424
ENDCHAR
STARTCHAR underscore
ENCODING 95
SWIDTH 452 0
DWIDTH 6 0
BBX 6 3 0 -1
BITMAP
6A90
7FE0
1550
ENDCHAR
STARTCHAR grave
ENCODING 96
SWIDTH 444 0
DWIDTH 6 0
BBX 5 3 1 11
BITMAP
6000
BD00
6F40
ENDCHAR
STARTCHAR a
ENCODING 97
SWIDTH 479 0
DWIDTH 7 0
BBX 7 12 0 -1
BITMAP
1554
7FF0
2FE0
1FE0
1FE0
1FE0
1EE0
2DE0
2DE0
2FE0
2DD0
2890
ENDCHAR
STARTCHAR b
ENCODING 98
SWIDTH 610 0
DWIDTH 9 0
BBX 8 12 0 -1
BITMAP
0054
7FFE
2FFF
1FFF
1FFF
0F6F
0FAD
0FFC
0BBC
0B6D
07AC
05B8
ENDCHAR
STARTCHAR c
ENCODING 99
SWIDTH 534 0
DWIDTH 7 0
BBX 7 12 0 -1
BITMAP
0140
1FF4
7FFC
BFFC
BFFC
7EBC
3D7C
3D00
2D60
2EB4
0FF0
0580
ENDCHAR
STARTCHAR d
ENCODING 100
SWIDTH 573 0
DWIDTH 8 0
BBX 8 13 0 -2
BITMAP
0140
7FF8
3FFD
2FFE
1FFE
1FBE
0F6D
0F1C
0B6C
0B68
0BF4
06F0
0400
ENDCHAR
STARTCHAR e
ENCODING 101
SWIDTH 632 0
DWIDTH 9 0
BBX 9 12 0 -1
BITMAP
015000
7FFF40
3FFE00
2FFD00
1FFD00
1F9800
0F5000
0FF400
0FA400
0B5400
0BF400
045400
ENDCHAR
STARTCHAR f
ENCODING 102
SWIDTH 559 0
DWIDTH 8 0
BBX 7 12 0 -1
BITMAP
0500
7FFC
2FF8
1FF8
1FF4
0F64
0FA0
0FE0
0F50
0F00
0F40
0640
ENDCHAR
STARTCHAR g
ENCODING 103
SWIDTH 546 0
DWIDTH 8 0
BBX 8 12 0 -1
BITMAP
0100
2FF4
7FFC
BFFD
7FFD
7DBC
3C7C
3D94
2DFC
2E78
1FF8
0AE4
ENDCHAR
STARTCHAR h
ENCODING 104
SWIDTH 730 0
DWIDTH 10 0
BBX 10 12 0 -1
BITMAP
014540
7F4FE0
2F4FC0
2F4F80
1F4F80
1F4F40
0FFF00
0FFF00
0F6E00
0B6E00
0B6D00
041900
ENDCHAR
STARTCHAR i
ENCODING 105
SWIDTH 412 0
DWIDTH 6 0
BBX 5 12 0 -1
BITMAP
1540
7FC0
2F80
1F80
1F40
1F00
1F00
0F00
0F00
0F00
0A00
0100
ENDCHAR
STARTCHAR j
ENCODING 106
SWIDTH 458 0
DWIDTH 6 0
BBX 6 12 0 -1
BITMAP
0500
0FE0
0BE0
07D0
07D0
07C0
07C0
57C0
E7C0
FB80
7F40
0500
ENDCHAR
STARTCHAR k
ENCODING 107
SWIDTH 636 0
DWIDTH 9 0
BBX 9 12 0 -1
BITMAP
001500
7F6E40
2F7C00
1FB400
0FB400
0FE000
0BE000
0BE000
07F000
077800
076C00
011400
ENDCHAR
STARTCHAR l
ENCODING 108
SWIDTH 438 0
DWIDTH 6 0
BBX 7 12 0 -1
BITMAP
0550
7F80
2F40
2F40
2F00
1F40
0F00
0F00
0F00
0BF4
0BF0
0420
ENDCHAR
STARTCHAR m
ENCODING 109
SWIDTH 770 0
DWIDTH 11 0
BBX 10 12 0 -1
BITMAP
004540
6F8FE0
3FDFD0
2FEFC0
2FFF80
1FFF80
1FFF40
1FFF40
0FAF00
0FAE00
0A5D00
040000
ENDCHAR
STARTCHAR n
ENCODING 110
SWIDTH 664 0
DWIDTH 9 0
BBX 9 12 0 -1
BITMAP
151440
7F5F80
3F9F40
2FDF00
2FFE00
2FFE00
2FFD00
1FFD00
1EFC00
0EBC00
0E7800
097400
ENDCHAR
STARTCHAR o
ENCODING 111
SWIDTH 545 0
DWIDTH 8 0
BBX 8 12 0 -1
BITMAP
0140
2FF4
7FFC
BFFD
7FFD
7DBD
7CBC
3CBC
3DB8
2EF4
1FF0
0090
ENDCHAR
STARTCHAR p
ENCODING 112
SWIDTH 557 0
DWIDTH 8 0
BBX 8 12 0 -1
BITMAP
0550
7FF8
2FFD
1FFD
1FFD
1F6C
0F2C
0FB8
0FB4
0B40
0B40
0500
ENDCHAR
STARTCHAR q
ENCODING 113
SWIDTH 562 0
DWIDTH 8 0
BBX 8 13 0 -2
BITMAP
0140
1FF4
7FFD
BFFD
BFBE
7E3D
7E3D
3E2D
2E7D
1FFC
07FD
016D
0004
ENDCHAR
STARTCHAR r
ENCODING 114
SWIDTH 616 0
DWIDTH 9 0
BBX 9 12 0 -1
BITMAP
015000
7FFE00
2FFF40
1FFF40
0FFF00
0F5F00
0FAE00
0BFD00
0BF800
0B7800
0B7800
051800
ENDCHAR
STARTCHAR s
ENCODING 115
SWIDTH 481 0
DWIDTH 7 0
BBX 7 12 0 -1
BITMAP
0140
1FE0
7FF4
BFF4
BFF4
BDF0
7E50
2FD0
06E0
3DE0
2FC0
0A40
ENDCHAR
STARTCHAR t
ENCODING 116
SWIDTH 683 0
DWIDTH 10 0
BBX 9 13 0 -2
BITMAP
055500
7FFFC0
3FFF40
2FFF40
1FFF00
1AFA00
00F400
00F400
00F400
00F400
00B400
00B000
001000
ENDCHAR
STARTCHAR u
ENCODING 117
SWIDTH 708 0
DWIDTH 10 0
BBX 10 11 0 0
BITMAP
050000
7F4F90
2F5FD0
2F8F80
1F8F40
0F8F40
0F5F00
0F9F00
0B9E00
07FE00
02AD00
ENDCHAR
STARTCHAR v
ENCODING 118
SWIDTH 644 0
DWIDTH 9 0
BBX 8 12 1 -1
BITMAP
1410
FCBD
BCF8
7DF4
3DF4
2DF0
2EE0
1EE0
0FD0
0BC0
07C0
0240
ENDCHAR
STARTCHAR w
ENCODING 119
SWIDTH 704 0
DWIDTH 10 0
BBX 10 11 0 0
BITMAP
001000
7DA7D0
2EB7C0
0EFB40
0FFF00
0BFE00
07FE00
03FE00
02EE00
01DD00
009D00
ENDCHAR
STARTCHAR x
ENCODING 120
SWIDTH 599 0
DWIDTH 8 0
BBX 8 12 0 -1
BITMAP
0510
7F7E
0FB8
0BF0
07F0
03E0
03D0
02D0
03D0
07E0
07B0
0510
ENDCHAR
STARTCHAR y
ENCODING 121
SWIDTH 604 0
DWIDTH 8 0
BBX 8 12 0 -1
BITMAP
0410
7E3E
0B7C
07F4
03F0
02E0
02E0
01E0
01E0
01E0
01D0
0190
ENDCHAR
STARTCHAR z
ENCODING 122
SWIDTH 622 0
DWIDTH 9 0
BBX 8 12 0 -1
BITMAP
0550
7FFF
3FFE
1FFD
1FFC
0DF8
01E0
02D0
02C0
03E4
07F4
0150
ENDCHAR
STARTCHAR braceleft
ENCODING 123
SWIDTH 372 0
DWIDTH 5 0
BBX 5 14 0 -2
BITMAP
0180
0BC0
1F80
3F80
3F40
7D00
7C00
7C00
7C00
7C00
3E00
2F40
0F40
0240
ENDCHAR
STARTCHAR bar
ENCODING 124
SWIDTH 208 0
DWIDTH 3 0
BBX 1 13 1 -2
BITMAP
C0
C0
C0
C0
C0
C0
C0
C0
C0
C0
C0
C0
40
ENDCHAR
STARTCHAR braceright
ENCODING 125
SWIDTH 338 0
DWIDTH 5 0
BBX 4 14 0 -2
BITMAP
50
BD
7F
7F
7F
1F
0F
0F
0F
0E
1E
2D
B8
A0
ENDCHAR
STARTCHAR asciitilde
ENCODING 126
SWIDTH 535 0
DWIDTH 8 0
BBX 7 3 0 8
BITMAP
24A0
7FF8
2F74
ENDCHAR
STARTCHAR exclamdown
ENCODING 161
SWIDTH 347 0
DWIDTH 5 0
BBX 5 18 0 0
BITMAP
1000
3F40
3F40
3F40
7F40
0000
0400
1D00
1E00
1D00
2E00
2E00
3E00
7F00
3F00
7F00
BF40
1400
ENDCHAR
STARTCHAR cent
ENCODING 162
SWIDTH 552 0
DWIDTH 8 0
BBX 7 19 0 -5
BITMAP
0140
0140
0140
0290
1FF4
7FFC
BFFC
7FFC
7EBC
3E6C
3D00
2E60
2EB4
0FF0
0680
0100
0140
0140
0140
ENDCHAR
STARTCHAR sterling
ENCODING 163
SWIDTH 589 0
DWIDTH 8 0
BBX 8 12 0 -1
BITMAP
0100
1FF4
7FFD
7FFE
7FFE
3EBD
3D7C
7F40
1E00
1FF8
2FF4
0560
ENDCHAR
STARTCHAR yen
ENCODING 165
SWIDTH 692 0
DWIDTH 10 0
BBX 10 11 0 1
BITMAP
BE1E90
1F6F80
0BFE00
03FC00
16FE80
2AF940
29FA80
16F940
00B400
00B800
006400
ENDCHAR
STARTCHAR brokenbar
ENCODING 166
SWIDTH 201 0
DWIDTH 3 0
BBX 2 13 0 -2
BITMAP
70
70
70
30
10
00
00
10
30
20
30
30
10
ENDCHAR
STARTCHAR section
ENCODING 167
SWIDTH 477 0
DWIDTH 7 0
BBX 7 14 0 -3
BITMAP
0140
1FF0
2FF4
3FF0
2EE0
2E50
2FD0
B9E0
B9D0
7FC0
1B80
2AC0
3F80
1900
ENDCHAR
STARTCHAR dieresis
ENCODING 168
SWIDTH 633 0
DWIDTH 9 0
BBX 7 4 1 11
BITMAP
5464
F8F8
F8F8
A4A4
ENDCHAR
STARTCHAR copyright
ENCODING 169
SWIDTH 783 0
DWIDTH 11 0
BBX 11 12 0 -1
BITMAP
01A900
0A5680
28FD50
32FE20
62FE14
52EE14
62C914
62C014
21DD20
24FC90
0D56C0
02FE00
ENDCHAR
STARTCHAR guillemotleft
ENCODING 171
SWIDTH 759 0
DWIDTH 11 0
BBX 10 8 0 1
BITMAP
055250
0B8BD0
2F5F80
7E2F00
7D2F00
2E1F40
0F8BC0
07D2E0
ENDCHAR
STARTCHAR uni00AD
ENCODING 173
SWIDTH 446 0
DWIDTH 6 0
BBX 6 2 0 4
BITMAP
2A90
6FD0
ENDCHAR
STARTCHAR registered
ENCODING 174
SWIDTH 780 0
DWIDTH 11 0
BBX 11 12 0 -1
BITMAP
01A400
0A4140
2FFD50
32FE20
62FE24
92DE24
51ED24
60FC10
30AA10
186650
0B5680
01B900
ENDCHAR
STARTCHAR macron
ENCODING 175
SWIDTH 446 0
DWIDTH 6 0
BBX 6 2 0 4
BITMAP
2A90
6FD0
ENDCHAR
STARTCHAR acute
ENCODING 180
SWIDTH 439 0
DWIDTH 6 0
BBX 4 4 1 10
BITMAP
09
3E
F9
40
ENDCHAR
STARTCHAR mu
ENCODING 181
SWIDTH 679 0
DWIDTH 10 0
BBX 10 11 0 0
BITMAP
050000
7F1F90
3F1FC0
2F5F80
2F5F40
1F5F00
1F6F00
1F6E00
0F6E00
0BFD00
07B800
ENDCHAR
STARTCHAR paragraph
ENCODING 182
SWIDTH 591 0
DWIDTH 8 0
BBX 8 12 0 -1
BITMAP
0550
7FFF
BFED
BFCC
7FCC
3FDC
2FDC
04D8
0094
0084
0094
0044
ENDCHAR
STARTCHAR periodcentered
ENCODING 183
SWIDTH 388 0
DWIDTH 5 0
BBX 4 5 1 3
BITMAP
55
FE
FE
FE
A9
ENDCHAR
STARTCHAR cedilla
ENCODING 184
SWIDTH 270 0
DWIDTH 4 0
BBX 4 5 0 -5
BITMAP
34
74
6D
1C
28
ENDCHAR
STARTCHAR guillemotright
ENCODING 187
SWIDTH 767 0
DWIDTH 11 0
BBX 11 8 0 1
BITMAP
6A1500
3F1F40
1F87D0
0BD3E0
07D2F4
0F87F0
3F0BD0
791F40
ENDCHAR
STARTCHAR Agrave
ENCODING 192
SWIDTH 494 0
DWIDTH 7 0
BBX 8 17 -1 -2
BITMAP
2800
7E00
1BC0
0040
0000
1FFD
0BF8
07F4
0BF4
07F4
07B0
0B74
0BB0
0BF0
07B0
0660
0410
ENDCHAR
STARTCHAR Aacute
ENCODING 193
SWIDTH 494 0
DWIDTH 7 0
BBX 8 17 0 -2
BITMAP
000C
007E
01F9
0000
0000
7FF4
2FE0
1FD0
2FD0
1FD0
1EC0
2DD0
2EC0
2FC0
1EC0
1980
1040
ENDCHAR
STARTCHAR Acircumflex
ENCODING 194
SWIDTH 494 0
DWIDTH 7 0
BBX 7 18 0 -2
BITMAP
0A40
1FC0
3EE0
74B0
A034
0000
7FF4
2FE0
1FD0
2FD0
1FD0
1EC0
2DD0
2EC0
2FC0
1EC0
1980
1040
ENDCHAR
STARTCHAR Atilde
ENCODING 195
SWIDTH 494 0
DWIDTH 7 0
BBX 7 16 0 -2
BITMAP
21A0
BFF4
2E60
0000
7FF4
2FE0
1FD0
2FD0
1FD0
1EC0
2DD0
2EC0
2FC0
1EC0
1980
1040
ENDCHAR
STARTCHAR Adieresis
ENCODING 196
SWIDTH 494 0
DWIDTH 7 0
BBX 7 17 0 -2
BITMAP
5464
FCFC
F8FC
A8A8
0000
7FF4
2FE0
1FD0
2FD0
1FD0
1EC0
2DD0
2EC0
2FC0
1EC0
1980
1040
ENDCHAR
STARTCHAR Aring
ENCODING 197
SWIDTH 494 0
DWIDTH 7 0
BBX 7 17 0 -2
BITMAP
0B80
1990
0D80
0B40
0000
7FF4
2FE0
1FD0
2FD0
1FD0
1EC0
2DD0
2EC0
2FC0
1EC0
1980
1040
ENDCHAR
STARTCHAR AE
ENCODING 198
SWIDTH 733 0
DWIDTH 10 0
BBX 10 13 0 -2
BITMAP
015500
7FFFE0
2FFFD0
2FFF80
1FFF80
1FF140
2EF900
2DFE00
1EF500
2FFA00
1EEE00
199500
105100
ENDCHAR
STARTCHAR Ccedilla
ENCODING 199
SWIDTH 504 0
DWIDTH 7 0
BBX 7 18 0 -7
BITMAP
0140
1FE0
7FF8
BFF8
BFF8
7DF8
7D64
3C00
3CA0
2EF0
1FE0
0580
0000
0090
00D0
00B4
0064
00A4
ENDCHAR
STARTCHAR Egrave
ENCODING 200
SWIDTH 570 0
DWIDTH 8 0
BBX 8 16 0 -1
BITMAP
3400
BD00
6B40
0000
0550
7FFD
2FFC
2FF8
2FF4
2E50
1F90
1FD0
1E40
0FA0
0BE0
0510
ENDCHAR
STARTCHAR Eacute
ENCODING 201
SWIDTH 570 0
DWIDTH 8 0
BBX 9 16 0 -1
BITMAP
000600
002F40
00B900
000000
055000
7FFD00
2FFC00
2FF800
2FF400
2E5000
1F9000
1FD000
1E4000
0FA000
0BE000
051000
ENDCHAR
STARTCHAR Ecircumflex
ENCODING 202
SWIDTH 570 0
DWIDTH 8 0
BBX 8 17 0 -1
BITMAP
0680
0FE0
1FF4
2C78
3418
0550
7FFD
2FFC
2FF8
2FF4
2E50
1F90
1FD0
1E40
0FA0
0BE0
0510
ENDCHAR
STARTCHAR Edieresis
ENCODING 203
SWIDTH 570 0
DWIDTH 8 0
BBX 8 16 0 -1
BITMAP
1459
7D7D
7D7D
6969
0550
7FFD
2FFC
2FF8
2FF4
2E50
1F90
1FD0
1E40
0FA0
0BE0
0510
ENDCHAR
STARTCHAR Igrave
ENCODING 204
SWIDTH 401 0
DWIDTH 6 0
BBX 6 16 -1 -1
BITMAP
6000
BD00
6F40
0000
1550
1FF0
0BE0
07E0
07D0
07D0
07D0
07C0
03C0
03C0
02C0
0040
ENDCHAR
STARTCHAR Iacute
ENCODING 205
SWIDTH 401 0
DWIDTH 6 0
BBX 8 16 0 -1
BITMAP
0024
00BD
03E4
0100
5540
7FC0
2F80
1F80
1F40
1F40
1F40
1F00
0F00
0F00
0B00
0100
ENDCHAR
STARTCHAR Icircumflex
ENCODING 206
SWIDTH 401 0
DWIDTH 6 0
BBX 7 17 -1 -1
BITMAP
0680
0FD0
2EF0
38B4
6028
1550
1FF0
0BE0
07E0
07D0
07D0
07D0
07C0
03C0
03C0
02C0
0040
ENDCHAR
STARTCHAR Idieresis
ENCODING 207
SWIDTH 401 0
DWIDTH 6 0
BBX 8 16 -1 -1
BITMAP
5468
BCBD
BCBD
6868
1550
1FF0
0BE0
07E0
07D0
07D0
07D0
07C0
03C0
03C0
02C0
0040
ENDCHAR
STARTCHAR Eth
ENCODING 208
SWIDTH 530 0
DWIDTH 7 0
BBX 8 13 0 -2
BITMAP
0050
2FF8
2FFD
1FFE
0FFE
0FAD
5F9D
1F9C
0B68
07B8
06F4
0490
0040
ENDCHAR
STARTCHAR Ntilde
ENCODING 209
SWIDTH 610 0
DWIDTH 9 0
BBX 8 16 0 -2
BITMAP
1874
3FFC
1F68
0110
7F3E
2F7D
2FBC
2FFC
2FFC
1FF8
1FF8
0EF8
0EB8
0E74
0A64
0500
ENDCHAR
STARTCHAR Ograve
ENCODING 210
SWIDTH 504 0
DWIDTH 7 0
BBX 8 16 -1 -1
BITMAP
2800
7E00
1B80
0040
0040
0BF8
1FFE
2FFE
1FFE
1F7E
1F3E
0F2D
0F3D
0BBC
07F8
0164
ENDCHAR
STARTCHAR Oacute
ENCODING 211
SWIDTH 504 0
DWIDTH 7 0
BBX 8 16 0 -1
BITMAP
000C
007E
01F9
0000
0100
2FE0
7FF8
BFF8
7FF8
7DF8
7CF8
3CB4
3CF4
2EF0
1FE0
0590
ENDCHAR
STARTCHAR Ocircumflex
ENCODING 212
SWIDTH 504 0
DWIDTH 7 0
BBX 7 17 0 -1
BITMAP
0A40
1FC0
3EE0
74F0
A034
0100
2FE0
7FF8
BFF8
7FF8
7DF8
7CF8
3CB4
3CF4
2EF0
1FE0
0590
ENDCHAR
STARTCHAR Otilde
ENCODING 213
SWIDTH 504 0
DWIDTH 7 0
BBX 7 15 0 -1
BITMAP
61D0
FFF4
3DA0
0100
2FE0
7FF8
BFF8
7FF8
7DF8
7CF8
3CB4
3CF4
2EF0
1FE0
0590
ENDCHAR
STARTCHAR Odieresis
ENCODING 214
SWIDTH 504 0
DWIDTH 7 0
BBX 7 16 0 -1
BITMAP
5464
F8FC
F8FC
A8A8
0100
2FE0
7FF8
BFF8
7FF8
7DF8
7CF8
3CB4
3CF4
2EF0
1FE0
0590
ENDCHAR
STARTCHAR multiply
ENCODING 215
SWIDTH 359 0
DWIDTH 5 0
BBX 5 6 0 2
BITMAP
2200
BF80
3F00
7F80
7B80
1000
ENDCHAR
STARTCHAR Oslash
ENCODING 216
SWIDTH 658 0
DWIDTH 9 0
BBX 9 12 0 -1
BITMAP
014000
1FF400
3FFD80
3FFE00
3FFD00
3EBD00
2DBD00
2E7C00
1D7C00
2EB800
5FF400
029000
ENDCHAR
STARTCHAR Ugrave
ENCODING 217
SWIDTH 637 0
DWIDTH 9 0
BBX 9 16 0 -1
BITMAP
180000
7E0000
1BC000
004000
151000
7F2F40
3F3F00
2F3E00
2F3D00
1F3C00
1E3C00
1F3C00
1F7800
0FF800
0BA400
001000
ENDCHAR
STARTCHAR Uacute
ENCODING 218
SWIDTH 637 0
DWIDTH 9 0
BBX 9 16 0 -1
BITMAP
000240
001F80
007E40
000000
151000
7F2F40
3F3F00
2F3E00
2F3D00
1F3C00
1E3C00
1F3C00
1F7800
0FF800
0BA400
001000
ENDCHAR
STARTCHAR Ucircumflex
ENCODING 219
SWIDTH 637 0
DWIDTH 9 0
BBX 9 17 0 -1
BITMAP
029000
07F400
0BB800
1E2D00
280D00
151000
7F2F40
3F3F00
2F3E00
2F3D00
1F3C00
1E3C00
1F3C00
1F7800
0FF800
0BA400
001000
ENDCHAR
STARTCHAR Udieresis
ENCODING 220
SWIDTH 637 0
DWIDTH 9 0
BBX 9 16 0 -1
BITMAP
151A00
2F3F00
3F3F00
2A2A00
151000
7F2F40
3F3F00
2F3E00
2F3D00
1F3C00
1E3C00
1F3C00
1F7800
0FF800
0BA400
001000
ENDCHAR
STARTCHAR Yacute
ENCODING 221
SWIDTH 688 0
DWIDTH 10 0
BBX 10 16 0 -1
BITMAP
000180
000BD0
002E40
000000
050400
6F4F90
0BDF40
02FE00
01FC00
00FC00
00BC00
007800
007800
003800
003800
001000
ENDCHAR
STARTCHAR Thorn
ENCODING 222
SWIDTH 521 0
DWIDTH 7 0
BBX 7 15 0 -2
BITMAP
6A00
BF00
BE50
7FF8
7FF8
7FFC
3FF8
3E38
2E38
2FB4
1FA0
1E00
1E00
0A00
0500
ENDCHAR
STARTCHAR germandbls
ENCODING 223
SWIDTH 546 0
DWIDTH 8 0
BBX 8 12 0 -1
BITMAP
0040
2FF8
7FFD
7FFD
7FFC
7DB8
7DB4
3DF0
3DF4
3DB4
2DF0
19E0
ENDCHAR
STARTCHAR agrave
ENCODING 224
SWIDTH 479 0
DWIDTH 7 0
BBX 7 16 0 -1
BITMAP
6000
B800
6F00
0100
1554
7FF0
2FE0
1FE0
1FE0
1FE0
1EE0
2DE0
2DE0
2FE0
2DD0
2890
ENDCHAR
STARTCHAR aacute
ENCODING 225
SWIDTH 479 0
DWIDTH 7 0
BBX 8 16 0 -1
BITMAP
0009
003E
00F9
0040
1554
7FF0
2FE0
1FE0
1FE0
1FE0
1EE0
2DE0
2DE0
2FE0
2DD0
2890
ENDCHAR
STARTCHAR acircumflex
ENCODING 226
SWIDTH 479 0
DWIDTH 7 0
BBX 7 17 0 -1
BITMAP
0A80
1FD0
2EE0
38B4
6024
1554
7FF0
2FE0
1FE0
1FE0
1FE0
1EE0
2DE0
2DE0
2FE0
2DD0
2890
ENDCHAR
STARTCHAR atilde
ENCODING 227
SWIDTH 479 0
DWIDTH 7 0
BBX 7 15 0 -1
BITMAP
61E0
BFF4
2E60
1554
7FF0
2FE0
1FE0
1FE0
1FE0
1EE0
2DE0
2DE0
2FE0
2DD0
2890
ENDCHAR
STARTCHAR adieresis
ENCODING 228
SWIDTH 479 0
DWIDTH 7 0
BBX 7 16 0 -1
BITMAP
5468
BCBC
BCBC
A8A8
1554
7FF0
2FE0
1FE0
1FE0
1FE0
1EE0
2DE0
2DE0
2FE0
2DD0
2890
ENDCHAR
STARTCHAR aring
ENCODING 229
SWIDTH 479 0
DWIDTH 7 0
BBX 7 16 0 -1
BITMAP
0B80
1D90
0D90
0780
1554
7FF0
2FE0
1FE0
1FE0
1FE0
1EE0
2DE0
2DE0
2FE0
2DD0
2890
ENDCHAR
STARTCHAR ae
ENCODING 230
SWIDTH 755 0
DWIDTH 11 0
BBX 10 12 0 -1
BITMAP
155500
7FFFF0
2FFFD0
1FFFC0
1FFFC0
1FF580
1EF500
1DFF00
2DFA00
2FF500
1DFF40
2C9500
ENDCHAR
STARTCHAR ccedilla
ENCODING 231
SWIDTH 534 0
DWIDTH 7 0
BBX 7 17 0 -6
BITMAP
0140
1FF4
7FFC
BFFC
BFFC
7EBC
3D7C
3D00
2D60
2EB4
0FF0
0580
00C0
0190
01B0
0070
01A0
ENDCHAR
STARTCHAR egrave
ENCODING 232
SWIDTH 632 0
DWIDTH 9 0
BBX 9 16 0 -1
BITMAP
280000
7E0000
1B8000
000000
015000
7FFF40
3FFE00
2FFD00
1FFD00
1F9800
0F5000
0FF400
0FA400
0B5400
0BF400
045400
ENDCHAR
STARTCHAR eacute
ENCODING 233
SWIDTH 632 0
DWIDTH 9 0
BBX 9 16 0 -1
BITMAP
000700
001F80
007A40
000000
015000
7FFF40
3FFE00
2FFD00
1FFD00
1F9800
0F5000
0FF400
0FA400
0B5400
0BF400
045400
ENDCHAR
STARTCHAR ecircumflex
ENCODING 234
SWIDTH 632 0
DWIDTH 9 0
BBX 9 17 0 -1
BITMAP
029000
07F000
0FB800
1D3C00
241D00
015400
7FFF40
3FFE00
2FFD00
1FFD00
1F9800
0F5000
0FF400
0FA400
0B5400
0BF400
045400
ENDCHAR
STARTCHAR edieresis
ENCODING 235
SWIDTH 632 0
DWIDTH 9 0
BBX 9 16 0 -1
BITMAP
151900
3E3E00
3E3E00
2A2A00
015000
7FFF40
3FFE00
2FFD00
1FFD00
1F9800
0F5000
0FF400
0FA400
0B5400
0BF400
045400
ENDCHAR
STARTCHAR igrave
ENCODING 236
SWIDTH 411 0
DWIDTH 6 0
BBX 6 16 -1 -1
BITMAP
3000
BD00
6F40
0000
0550
1FF0
0BE0
07E0
07D0
07D0
07C0
03C0
03C0
03C0
0280
0040
ENDCHAR
STARTCHAR iacute
ENCODING 237
SWIDTH 411 0
DWIDTH 6 0
BBX 8 16 0 -1
BITMAP
0028
00BD
03E4
0100
1540
7FC0
2F80
1F80
1F40
1F40
1F00
0F00
0F00
0F00
0A00
0100
ENDCHAR
STARTCHAR icircumflex
ENCODING 238
SWIDTH 411 0
DWIDTH 6 0
BBX 6 17 0 -1
BITMAP
1A40
2FC0
3FD0
B5F0
9070
1540
7FC0
2F80
1F80
1F40
1F40
1F00
0F00
0F00
0F00
0A00
0100
ENDCHAR
STARTCHAR idieresis
ENCODING 239
SWIDTH 411 0
DWIDTH 6 0
BBX 8 16 -1 -1
BITMAP
5458
BDBD
BDBD
6868
0550
1FF0
0BE0
07E0
07D0
07D0
07C0
03C0
03C0
03C0
0280
0040
ENDCHAR
STARTCHAR eth
ENCODING 240
SWIDTH 530 0
DWIDTH 7 0
BBX 8 13 0 -2
BITMAP
0050
2FF8
2FFD
1FFE
0FFE
0FAD
5F9D
1F9C
0B68
07B8
06F4
0490
0040
ENDCHAR
STARTCHAR ntilde
ENCODING 241
SWIDTH 664 0
DWIDTH 9 0
BBX 9 15 0 -1
BITMAP
086800
2FFE00
0B9800
151440
7F5F80
3F9F40
2FDF00
2FFE00
2FFE00
2FFD00
1FFD00
1EFC00
0EBC00
0E7800
097400
ENDCHAR
STARTCHAR ograve
ENCODING 242
SWIDTH 545 0
DWIDTH 8 0
BBX 8 16 0 -1
BITMAP
6000
BD00
6F40
0000
0140
2FF4
7FFC
BFFD
7FFD
7DBD
7CBC
3CBC
3DB8
2EF4
1FF0
0090
ENDCHAR
STARTCHAR oacute
ENCODING 243
SWIDTH 545 0
DWIDTH 8 0
BBX 8 16 0 -1
BITMAP
0009
002F
00F9
0040
0140
2FF4
7FFC
BFFD
7FFD
7DBD
7CBC
3CBC
3DB8
2EF4
1FF0
0090
ENDCHAR
STARTCHAR ocircumflex
ENCODING 244
SWIDTH 545 0
DWIDTH 8 0
BBX 8 17 0 -1
BITMAP
0680
0FD0
2EF0
38B4
6028
0140
2FF4
7FFC
BFFD
7FFD
7DBD
7CBC
3CBC
3DB8
2EF4
1FF0
0090
ENDCHAR
STARTCHAR otilde
ENCODING 245
SWIDTH 545 0
DWIDTH 8 0
BBX 8 15 0 -1
BITMAP
21A0
BFF8
2E60
0140
2FF4
7FFC
BFFD
7FFD
7DBD
7CBC
3CBC
3DB8
2EF4
1FF0
0090
ENDCHAR
STARTCHAR odieresis
ENCODING 246
SWIDTH 545 0
DWIDTH 8 0
BBX 8 16 0 -1
BITMAP
5468
BCBC
BCBD
6868
0140
2FF4
7FFC
BFFD
7FFD
7DBD
7CBC
3CBC
3DB8
2EF4
1FF0
0090
ENDCHAR
STARTCHAR oslash
ENCODING 248
SWIDTH 676 0
DWIDTH 9 0
BBX 9 12 0 -1
BITMAP
014000
1FF440
3FFE00
7FFD00
7FFD00
3DBD00
3DBC00
2D7C00
2DB800
2EF400
4FF000
009000
ENDCHAR
STARTCHAR ugrave
ENCODING 249
SWIDTH 708 0
DWIDTH 10 0
BBX 10 15 0 0
BITMAP
0D0000
2F4000
1AD000
000000
050000
7F4F90
2F5FD0
2F8F80
1F8F40
0F8F40
0F5F00
0F9F00
0B9E00
07FE00
02AD00
ENDCHAR
STARTCHAR uacute
ENCODING 250
SWIDTH 708 0
DWIDTH 10 0
BBX 10 15 0 0
BITMAP
000180
000BD0
002E40
000000
050000
7F4F90
2F5FD0
2F8F80
1F8F40
0F8F40
0F5F00
0F9F00
0B9E00
07FE00
02AD00
ENDCHAR
STARTCHAR ucircumflex
ENCODING 251
SWIDTH 708 0
DWIDTH 10 0
BBX 10 16 0 0
BITMAP
01A000
03F800
07FD00
0B1E00
0D0600
050000
7F4F90
2F5FD0
2F8F80
1F8F40
0F8F40
0F5F00
0F9F00
0B9E00
07FE00
02AD00
ENDCHAR
STARTCHAR udieresis
ENCODING 252
SWIDTH 708 0
DWIDTH 10 0
BBX 10 15 0 0
BITMAP
051640
1F5F40
1F5F40
1A5A40
050000
7F4F90
2F5FD0
2F8F80
1F8F40
0F8F40
0F5F00
0F9F00
0B9E00
07FE00
02AD00
ENDCHAR
STARTCHAR yacute
ENCODING 253
SWIDTH 604 0
DWIDTH 8 0
BBX 9 16 0 -1
BITMAP
000700
001F80
007A40
000000
041000
7E3E00
0B7C00
07F400
03F000
02E000
02E000
01E000
01E000
01E000
01D000
019000
ENDCHAR
STARTCHAR thorn
ENCODING 254
SWIDTH 498 0
DWIDTH 7 0
BBX 7 15 0 -2
BITMAP
6A00
BE00
BE40
7FF4
7FF4
7FF8
3FF4
3D74
2E74
2FF0
1FA0
1E00
1E00
0A00
0500
ENDCHAR
STARTCHAR ydieresis
ENCODING 255
SWIDTH 604 0
DWIDTH 8 0
BBX 8 16 0 -1
BITMAP
151A
2F2F
2F2F
1A2A
0410
7E3E
0B7C
07F4
03F0
02E0
02E0
01E0
01E0
01E0
01D0
0190
ENDCHAR
STARTCHAR Amacron
ENCODING 256
SWIDTH 494 0
DWIDTH 7 0
BBX 7 15 0 -2
BITMAP
2AA0
2FA0
0000
7FF4
2FE0
1FD0
2FD0
1FD0
1EC0
2DD0
2EC0
2FC0
1EC0
1980
1040
ENDCHAR
STARTCHAR amacron
ENCODING 257
SWIDTH 479 0
DWIDTH 7 0
BBX 7 14 0 -1
BITMAP
2AA0
2FE0
1554
7FF0
2FE0
1FE0
1FE0
1FE0
1EE0
2DE0
2DE0
2FE0
2DD0
2890
ENDCHAR
STARTCHAR Abreve
ENCODING 258
SWIDTH 494 0
DWIDTH 7 0
BBX 7 17 0 -2
BITMAP
1C24
1E78
0BF0
0190
0000
7FF4
2FE0
1FD0
2FD0
1FD0
1EC0
2DD0
2EC0
2FC0
1EC0
1980
1040
ENDCHAR
STARTCHAR abreve
ENCODING 259
SWIDTH 479 0
DWIDTH 7 0
BBX 7 16 0 -1
BITMAP
1C24
1E78
0BF0
0190
1554
7FF0
2FE0
1FE0
1FE0
1FE0
1EE0
2DE0
2DE0
2FE0
2DD0
2890
ENDCHAR
STARTCHAR Aogonek
ENCODING 260
SWIDTH 494 0
DWIDTH 7 0
BBX 7 16 0 -6
BITMAP
7FF4
2FE0
1FD0
2FD0
1FD0
1EC0
2DD0
2EC0
2FC0
1EC0
1980
1280
0380
0380
02F8
00B4
ENDCHAR
STARTCHAR aogonek
ENCODING 261
SWIDTH 479 0
DWIDTH 7 0
BBX 8 16 0 -5
BITMAP
1554
7FF0
2FE0
1FE0
1FE0
1FE0
1EE0
2DE0
2DE0
2FE0
2DD0
28D0
01D0
01D0
00F9
007D
ENDCHAR
STARTCHAR Cacute
ENCODING 262
SWIDTH 504 0
DWIDTH 7 0
BBX 8 16 0 -1
BITMAP
0028
00BD
03E4
0100
0140
1FE0
7FF8
BFF8
BFF8
7DF8
7D64
3C00
3CA0
2EF0
1FE0
0580
ENDCHAR
STARTCHAR cacute
ENCODING 263
SWIDTH 534 0
DWIDTH 7 0
BBX 8 16 0 -1
BITMAP
0018
007D
02E4
0000
0140
1FF4
7FFC
BFFC
BFFC
7EBC
3D7C
3D00
2D60
2EB4
0FF0
0580
ENDCHAR
STARTCHAR Ccircumflex
ENCODING 264
SWIDTH 504 0
DWIDTH 7 0
BBX 7 17 0 -1
BITMAP
0680
0FE0
1EF0
3878
7028
0140
1FE0
7FF8
BFF8
BFF8
7DF8
7D64
3C00
3CA0
2EF0
1FE0
0580
ENDCHAR
STARTCHAR ccircumflex
ENCODING 265
SWIDTH 534 0
DWIDTH 7 0
BBX 7 17 0 -1
BITMAP
0290
0BF0
0FF4
1D3C
241C
0140
1FF4
7FFC
BFFC
BFFC
7EBC
3D7C
3D00
2D60
2EB4
0FF0
0580
ENDCHAR
STARTCHAR Cdotaccent
ENCODING 266
SWIDTH 504 0
DWIDTH 7 0
BBX 7 17 0 -1
BITMAP
0550
0FE0
0FE0
0FE0
0A90
0140
1FE0
7FF8
BFF8
BFF8
7DF8
7D64
3C00
3CA0
2EF0
1FE0
0580
ENDCHAR
STARTCHAR cdotaccent
ENCODING 267
SWIDTH 534 0
DWIDTH 7 0
BBX 7 17 0 -1
BITMAP
0550
0BE0
0BE0
0BE0
0690
0140
1FF4
7FFC
BFFC
BFFC
7EBC
3D7C
3D00
2D60
2EB4
0FF0
0580
ENDCHAR
STARTCHAR Ccaron
ENCODING 268
SWIDTH 504 0
DWIDTH 7 0
BBX 7 17 0 -1
BITMAP
2024
7878
3DF0
1FE0
0FC0
0540
1FE0
7FF8
BFF8
BFF8
7DF8
7D64
3C00
3CA0
2EF0
1FE0
0580
ENDCHAR
STARTCHAR ccaron
ENCODING 269
SWIDTH 534 0
DWIDTH 7 0
BBX 7 17 0 -1
BITMAP
1418
2D3C
1EB8
0FF0
07E0
0140
1FF4
7FFC
BFFC
BFFC
7EBC
3D7C
3D00
2D60
2EB4
0FF0
0580
ENDCHAR
STARTCHAR Dcaron
ENCODING 270
SWIDTH 522 0
DWIDTH 7 0
BBX 8 18 0 -2
BITMAP
1818
2D2D
1FB8
0BF4
07E0
0040
7FF4
3FFC
2FFC
2FFC
2F78
1E38
1E34
1E74
0FB4
0EF0
0580
0100
ENDCHAR
STARTCHAR dcaron
ENCODING 271
SWIDTH 522 0
DWIDTH 7 0
BBX 8 18 0 -2
BITMAP
1818
2D2D
1FB8
0BF4
07E0
0040
7FF4
3FFC
2FFC
2FFC
2F78
1E38
1E34
1E74
0FB4
0EF0
0580
0100
ENDCHAR
STARTCHAR Eth.dup2
ENCODING 272
SWIDTH 530 0
DWIDTH 7 0
BBX 8 13 0 -2
BITMAP
0050
2FF8
2FFD
1FFE
0FFE
0FAD
5F9D
1F9C
0B68
07B8
06F4
0490
0040
ENDCHAR
STARTCHAR Emacron
ENCODING 274
SWIDTH 570 0
DWIDTH 8 0
BBX 8 14 0 -1
BITMAP
1AA4
1BF4
0550
7FFD
2FFC
2FF8
2FF4
2E50
1F90
1FD0
1E40
0FA0
0BE0
0510
ENDCHAR
STARTCHAR emacron
ENCODING 275
SWIDTH 632 0
DWIDTH 9 0
BBX 9 14 0 -1
BITMAP
0AA400
0BF800
015000
7FFF40
3FFE00
2FFD00
1FFD00
1F9800
0F5000
0FF400
0FA400
0B5400
0BF400
045400
ENDCHAR
STARTCHAR Ebreve
ENCODING 276
SWIDTH 570 0
DWIDTH 8 0
BBX 8 16 0 -1
BITMAP
0E18
0B6C
07F8
0064
0550
7FFD
2FFC
2FF8
2FF4
2E50
1F90
1FD0
1E40
0FA0
0BE0
0510
ENDCHAR
STARTCHAR ebreve
ENCODING 277
SWIDTH 632 0
DWIDTH 9 0
BBX 9 16 0 -1
BITMAP
074A00
039E00
02FD00
005800
015000
7FFF40
3FFE00
2FFD00
1FFD00
1F9800
0F5000
0FF400
0FA400
0B5400
0BF400
045400
ENDCHAR
STARTCHAR Edotaccent
ENCODING 278
SWIDTH 570 0
DWIDTH 8 0
BBX 8 17 0 -1
BITMAP
0550
0FE0
0BE0
0BE0
0A90
0550
7FFD
2FFC
2FF8
2FF4
2E50
1F90
1FD0
1E40
0FA0
0BE0
0510
ENDCHAR
STARTCHAR edotaccent
ENCODING 279
SWIDTH 632 0
DWIDTH 9 0
BBX 9 17 0 -1
BITMAP
055000
0BF000
07F000
07F000
06A000
015000
7FFF40
3FFE00
2FFD00
1FFD00
1F9800
0F5000
0FF400
0FA400
0B5400
0BF400
045400
ENDCHAR
STARTCHAR Eogonek
ENCODING 280
SWIDTH 513 0
DWIDTH 7 0
BBX 8 16 0 -5
BITMAP
0550
7FFD
2FFC
2FF8
2FF4
2E50
1F90
1FD0
1E40
0FA0
0FE0
05D0
02C0
01D4
00FC
0018
ENDCHAR
STARTCHAR eogonek
ENCODING 281
SWIDTH 632 0
DWIDTH 9 0
BBX 9 16 0 -5
BITMAP
015000
7FFF40
3FFE00
2FFD00
1FFD00
1F9800
0F5000
0FF400
0FA400
0B5400
0BF400
04B000
00A000
00B400
007F00
001900
ENDCHAR
STARTCHAR Ecaron
ENCODING 282
SWIDTH 570 0
DWIDTH 8 0
BBX 8 17 0 -1
BITMAP
1818
2D3D
1FB8
0BF4
07E0
0550
7FFD
2FFC
2FF8
2FF4
2E50
1F90
1FD0
1E40
0FA0
0BE0
0510
ENDCHAR
STARTCHAR ecaron
ENCODING 283
SWIDTH 632 0
DWIDTH 9 0
BBX 9 17 0 -1
BITMAP
090500
0F1F00
0BAD00
03FC00
02F400
015400
7FFF40
3FFE00
2FFD00
1FFD00
1F9800
0F5000
0FF400
0FA400
0B5400
0BF400
045400
ENDCHAR
STARTCHAR Gcircumflex
ENCODING 284
SWIDTH 499 0
DWIDTH 7 0
BBX 7 17 0 -1
BITMAP
0A40
1FC0
2EE0
74B4
A034
0100
2FE0
7FF4
7FF8
7FF8
7DF4
3CB4
3DA0
3DF4
2DB4
1FF0
0690
ENDCHAR
STARTCHAR gcircumflex
ENCODING 285
SWIDTH 546 0
DWIDTH 8 0
BBX 8 17 0 -1
BITMAP
0680
0FD0
2EF0
38B4
6028
0100
2FF4
7FFC
BFFD
7FFD
7DBC
3C7C
3D94
2DFC
2E78
1FF8
0AE4
ENDCHAR
STARTCHAR Gbreve
ENCODING 286
SWIDTH 499 0
DWIDTH 7 0
BBX 7 16 0 -1
BITMAP
2864
2DB4
1FE0
0090
0100
2FE0
7FF4
7FF8
7FF8
7DF4
3CB4
3DA0
3DF4
2DB4
1FF0
0690
ENDCHAR
STARTCHAR gbreve
ENCODING 287
SWIDTH 546 0
DWIDTH 8 0
BBX 8 16 0 -1
BITMAP
2C24
1E78
0BF0
0190
0100
2FF4
7FFC
BFFD
7FFD
7DBC
3C7C
3D94
2DFC
2E78
1FF8
0AE4
ENDCHAR
STARTCHAR Gdotaccent
ENCODING 288
SWIDTH 499 0
DWIDTH 7 0
BBX 7 17 0 -1
BITMAP
0540
1FD0
1FD0
1FD0
0A80
0100
2FE0
7FF4
7FF8
7FF8
7DF4
3CB4
3DA0
3DF4
2DB4
1FF0
0690
ENDCHAR
STARTCHAR gdotaccent
ENCODING 289
SWIDTH 546 0
DWIDTH 8 0
BBX 8 17 0 -1
BITMAP
0550
0FD0
0FD0
0FE0
0A90
0100
2FF4
7FFC
BFFD
7FFD
7DBC
3C7C
3D94
2DFC
2E78
1FF8
0AE4
ENDCHAR
STARTCHAR Gcommaaccent
ENCODING 290
SWIDTH 499 0
DWIDTH 7 0
BBX 7 20 0 -9
BITMAP
0100
2FE0
7FF4
7FF8
7FF8
7DF4
3CB4
3DA0
3DF4
2DB4
1FF0
0690
0000
0690
0BE0
0BE0
06E0
00D0
00D0
0040
ENDCHAR
STARTCHAR Hcircumflex
ENCODING 292
SWIDTH 726 0
DWIDTH 10 0
BBX 10 19 0 -3
BITMAP
01A000
03F800
07BD00
0B1E00
0D0600
014500
6F5FD0
2F4FC0
2F5F80
1F5F40
1F1F00
0FAF00
0FFE00
0F6E00
0B6D00
0B6D00
041900
000000
001000
ENDCHAR
STARTCHAR hcircumflex
ENCODING 293
SWIDTH 730 0
DWIDTH 10 0
BBX 10 17 0 -1
BITMAP
01A400
02F800
07FD00
0B1E00
0D0600
014540
7F4FE0
2F4FC0
2F4F80
1F4F80
1F4F40
0FFF00
0FFF00
0F6E00
0B6E00
0B6D00
041900
ENDCHAR
STARTCHAR hbar
ENCODING 295
SWIDTH 704 0
DWIDTH 10 0
BBX 10 12 0 -1
BITMAP
015540
7F5FD0
2F6F80
2FFF40
1FFF00
1F1F00
0FBE00
0FFE00
0F6E00
0B6E00
0B6D00
041900
ENDCHAR
STARTCHAR Itilde
ENCODING 296
SWIDTH 401 0
DWIDTH 6 0
BBX 7 15 -1 -1
BITMAP
21A0
BFF8
2E60
1550
1FF0
0BE0
07E0
07D0
07D0
07D0
07C0
03C0
03C0
02C0
0040
ENDCHAR
STARTCHAR itilde
ENCODING 297
SWIDTH 411 0
DWIDTH 6 0
BBX 7 15 -1 -1
BITMAP
24A0
7FF8
2E64
0550
1FF0
0BE0
07E0
07D0
07D0
07C0
03C0
03C0
03C0
0280
0040
ENDCHAR
STARTCHAR Imacron
ENCODING 298
SWIDTH 401 0
DWIDTH 6 0
BBX 5 14 0 -1
BITMAP
6A80
7FC0
5540
7FC0
2F80
1F80
1F40
1F40
1F40
1F00
0F00
0F00
0B00
0100
ENDCHAR
STARTCHAR imacron
ENCODING 299
SWIDTH 411 0
DWIDTH 6 0
BBX 5 14 0 -1
BITMAP
6A80
7FC0
1540
7FC0
2F80
1F80
1F40
1F40
1F00
0F00
0F00
0F00
0A00
0100
ENDCHAR
STARTCHAR Ibreve
ENCODING 300
SWIDTH 401 0
DWIDTH 6 0
BBX 6 16 0 -1
BITMAP
7090
79E0
2FC0
0640
5540
7FC0
2F80
1F80
1F40
1F40
1F40
1F00
0F00
0F00
0B00
0100
ENDCHAR
STARTCHAR ibreve
ENCODING 301
SWIDTH 411 0
DWIDTH 6 0
BBX 6 16 0 -1
BITMAP
B090
79E0
2FC0
0640
1540
7FC0
2F80
1F80
1F40
1F40
1F00
0F00
0F00
0F00
0A00
0100
ENDCHAR
STARTCHAR Iogonek
ENCODING 302
SWIDTH 401 0
DWIDTH 6 0
BBX 6 17 0 -6
BITMAP
5540
7FC0
2F80
1F80
1F40
1F40
1F40
1F00
0F00
0F00
0F00
0E00
1C00
1C00
1E40
0FD0
0140
ENDCHAR
STARTCHAR iogonek
ENCODING 303
SWIDTH 412 0
DWIDTH 6 0
BBX 6 16 0 -5
BITMAP
1540
7FC0
2F80
1F80
1F40
1F00
1F00
0F00
0F00
0F00
0F00
0E00
1D00
1D00
1F80
0BD0
ENDCHAR
STARTCHAR Idotaccent
ENCODING 304
SWIDTH 401 0
DWIDTH 6 0
BBX 5 17 0 -1
BITMAP
1540
3F40
3F40
3F40
2A40
5540
7FC0
2F80
1F80
1F40
1F40
1F40
1F00
0F00
0F00
0B00
0100
ENDCHAR
STARTCHAR dotlessi
ENCODING 305
SWIDTH 411 0
DWIDTH 6 0
BBX 5 12 0 -1
BITMAP
1540
7FC0
2F80
1F80
1F40
1F40
1F00
0F00
0F00
0F00
0A00
0100
ENDCHAR
STARTCHAR IJ
ENCODING 306
SWIDTH 908 0
DWIDTH 13 0
BBX 12 12 0 -1
BITMAP
554014
7FC07F
2F803E
1F803D
1F803D
1F403C
1F403C
1F4538
0F4F38
0F4BB8
0B47F0
010040
ENDCHAR
STARTCHAR ij
ENCODING 307
SWIDTH 901 0
DWIDTH 13 0
BBX 12 12 0 -1
BITMAP
154050
7FD0FE
2F80BE
1F807D
1F807D
1F407D
1F403D
0F453C
0F4F3C
0B0BB8
0B07F8
010014
ENDCHAR
STARTCHAR Jcircumflex
ENCODING 308
SWIDTH 455 0
DWIDTH 6 0
BBX 8 17 -1 -1
BITMAP
01A0
03F8
07BC
0B1E
0C06
0150
02F8
01F4
01F0
01F0
01E0
01E0
15D0
79D0
3ED0
2F80
0100
ENDCHAR
STARTCHAR jcircumflex
ENCODING 309
SWIDTH 458 0
DWIDTH 6 0
BBX 7 17 0 -1
BITMAP
0680
0FE0
1FF4
2C78
3418
0500
0FE0
0BE0
07D0
07D0
07C0
07C0
57C0
E7C0
FB80
7F40
0500
ENDCHAR
STARTCHAR Kcommaaccent
ENCODING 310
SWIDTH 580 0
DWIDTH 8 0
BBX 8 19 0 -8
BITMAP
1410
7F7D
2F74
1FB0
0FE0
0FE0
0FE0
0BE0
0BF0
0A70
0734
0110
02A0
03F0
07F0
02B0
0070
00B0
0010
ENDCHAR
STARTCHAR kcommaaccent
ENCODING 311
SWIDTH 636 0
DWIDTH 9 0
BBX 9 19 0 -8
BITMAP
001500
7F6E40
2F7C00
1FB400
0FB400
0FE000
0BE000
0BE000
07F000
077800
076C00
011400
01A400
02F800
02F800
02B800
003400
003400
001000
ENDCHAR
STARTCHAR kgreenlandic
ENCODING 312
SWIDTH 636 0
DWIDTH 9 0
BBX 9 12 0 -1
BITMAP
001500
7F6E40
2F7C00
1FB400
0FB400
0FE000
0BE000
0BE000
07F000
077800
076C00
011400
ENDCHAR
STARTCHAR Lacute
ENCODING 313
SWIDTH 416 0
DWIDTH 6 0
BBX 8 16 0 -1
BITMAP
0028
00BD
03E4
0100
5540
7F40
3E00
3F00
2E00
2E00
2E00
1E00
1E00
1FE0
0FF0
0560
ENDCHAR
STARTCHAR lacute
ENCODING 314
SWIDTH 438 0
DWIDTH 6 0
BBX 8 16 0 -1
BITMAP
0018
00BD
02E4
0000
0550
7F80
2F40
2F40
2F00
1F40
0F00
0F00
0F00
0BF4
0BF0
0420
ENDCHAR
STARTCHAR Lcommaaccent
ENCODING 315
SWIDTH 416 0
DWIDTH 6 0
BBX 6 20 0 -9
BITMAP
5540
7F40
3E00
3F00
2E00
2E00
2E00
1E00
1E00
1FE0
0FF0
0560
0000
1A80
1FC0
1FC0
1BC0
0280
0280
0100
ENDCHAR
STARTCHAR lcommaaccent
ENCODING 316
SWIDTH 438 0
DWIDTH 6 0
BBX 7 20 0 -9
BITMAP
0550
7F80
2F40
2F40
2F00
1F40
0F00
0F00
0F00
0BF4
0BF0
0420
0000
0A80
0FC0
1FD0
0AC0
01C0
02C0
0040
ENDCHAR
STARTCHAR Lcaron
ENCODING 317
SWIDTH 714 0
DWIDTH 10 0
BBX 10 12 0 -1
BITMAP
554A90
7F4FD0
3E1FD0
3F1FD0
2E05D0
2E00D0
2E01C0
1E0000
1E0000
1FE000
0FF000
056000
ENDCHAR
STARTCHAR lcaron
ENCODING 318
SWIDTH 782 0
DWIDTH 11 0
BBX 11 12 0 -1
BITMAP
0552A4
7F87F4
2F47F4
2F47F4
2F0174
1F4074
0F0070
0F0000
0F0000
0BF400
0BF000
042000
ENDCHAR
STARTCHAR Ldotaccent
ENCODING 319
SWIDTH 567 0
DWIDTH 8 0
BBX 9 12 0 -1
BITMAP
554000
7F4000
3E0500
3F3F80
2E3F80
2E3F80
2E2E40
1E0000
1E0000
1FE000
0FF000
056000
ENDCHAR
STARTCHAR ldot
ENCODING 320
SWIDTH 660 0
DWIDTH 9 0
BBX 10 12 0 -1
BITMAP
055000
7F8000
2F4000
2F4550
2F0FE0
1F4FE0
0F0FE0
0F0A90
0F0000
0BF400
0BF000
042000
ENDCHAR
STARTCHAR Lslash
ENCODING 321
SWIDTH 428 0
DWIDTH 6 0
BBX 7 12 0 -1
BITMAP
5540
3F40
2E00
2F20
2FF0
7FF4
BF90
6E00
0E00
0FE0
0FF0
0560
ENDCHAR
STARTCHAR lslash
ENCODING 322
SWIDTH 457 0
DWIDTH 6 0
BBX 7 12 0 -1
BITMAP
0550
3F80
2F40
1F64
1FF8
6FF8
7F90
3F40
0B40
0BF4
0BF4
0420
ENDCHAR
STARTCHAR Nacute
ENCODING 323
SWIDTH 610 0
DWIDTH 9 0
BBX 9 17 0 -2
BITMAP
000700
001F80
007A40
000000
011000
7F3E00
2F7D00
2FBC00
2FFC00
2FFC00
1FF800
1FF800
0EF800
0EB800
0E7400
0A6400
050000
ENDCHAR
STARTCHAR nacute
ENCODING 324
SWIDTH 664 0
DWIDTH 9 0
BBX 10 16 0 -1
BITMAP
000240
000BD0
003E40
001000
151440
7F5F80
3F9F40
2FDF00
2FFE00
2FFE00
2FFD00
1FFD00
1EFC00
0EBC00
0E7800
097400
ENDCHAR
STARTCHAR Ncommaaccent
ENCODING 325
SWIDTH 610 0
DWIDTH 9 0
BBX 8 21 0 -10
BITMAP
0110
7F3E
2F7D
2FBC
2FFC
2FFC
1FF8
1FF8
0EF8
0EB8
0E74
0A64
0500
0000
02A4
02F8
02F8
02B8
0034
0034
0010
ENDCHAR
STARTCHAR ncommaaccent
ENCODING 326
SWIDTH 664 0
DWIDTH 9 0
BBX 9 20 0 -9
BITMAP
151440
7F5F80
3F9F40
2FDF00
2FFE00
2FFE00
2FFD00
1FFD00
1EFC00
0EBC00
0E7800
097400
000000
01A800
01FC00
01FC00
01BC00
002800
002800
001000
ENDCHAR
STARTCHAR Ncaron
ENCODING 327
SWIDTH 610 0
DWIDTH 9 0
BBX 8 18 0 -2
BITMAP
1808
1E2D
0F7C
0BF4
03F0
0110
7F3E
2F7D
2FBC
2FFC
2FFC
1FF8
1FF8
0EF8
0EB8
0E74
0A64
0500
ENDCHAR
STARTCHAR ncaron
ENCODING 328
SWIDTH 664 0
DWIDTH 9 0
BBX 9 17 0 -1
BITMAP
090500
0F0F00
07AD00
03FC00
02F400
151440
7F5F80
3F9F40
2FDF00
2FFE00
2FFE00
2FFD00
1FFD00
1EFC00
0EBC00
0E7800
097400
ENDCHAR
STARTCHAR Omacron
ENCODING 332
SWIDTH 504 0
DWIDTH 7 0
BBX 7 14 0 -1
BITMAP
2AA0
2FA0
0100
2FE0
7FF8
BFF8
7FF8
7DF8
7CF8
3CB4
3CF4
2EF0
1FE0
0590
ENDCHAR
STARTCHAR omacron
ENCODING 333
SWIDTH 545 0
DWIDTH 8 0
BBX 8 14 0 -1
BITMAP
2AA0
2FF0
0140
2FF4
7FFC
BFFD
7FFD
7DBD
7CBC
3CBC
3DB8
2EF4
1FF0
0090
ENDCHAR
STARTCHAR Obreve
ENCODING 334
SWIDTH 504 0
DWIDTH 7 0
BBX 7 16 0 -1
BITMAP
2824
2DB4
1BF0
0190
0100
2FE0
7FF8
BFF8
7FF8
7DF8
7CF8
3CB4
3CF4
2EF0
1FE0
0590
ENDCHAR
STARTCHAR obreve
ENCODING 335
SWIDTH 545 0
DWIDTH 8 0
BBX 8 16 0 -1
BITMAP
2C24
1EB4
0BF0
0190
0140
2FF4
7FFC
BFFD
7FFD
7DBD
7CBC
3CBC
3DB8
2EF4
1FF0
0090
ENDCHAR
STARTCHAR Ohungarumlaut
ENCODING 336
SWIDTH 504 0
DWIDTH 7 0
BBX 7 17 0 -1
BITMAP
0410
1D78
2DB4
74E0
9180
0100
2FE0
7FF8
BFF8
7FF8
7DF8
7CF8
3CB4
3CF4
2EF0
1FE0
0590
ENDCHAR
STARTCHAR ohungarumlaut
ENCODING 337
SWIDTH 545 0
DWIDTH 8 0
BBX 8 17 0 -1
BITMAP
0410
0E3D
1E78
38A0
6080
0140
2FF4
7FFC
BFFD
7FFD
7DBD
7CBC
3CBC
3DB8
2EF4
1FF0
0090
ENDCHAR
STARTCHAR OE
ENCODING 338
SWIDTH 789 0
DWIDTH 11 0
BBX 11 13 0 -2
BITMAP
015540
2FFFF4
7FFFF0
BFFFE0
7FFFD0
7DF940
7CFE40
3CBF80
3CF900
2EFE80
1FEF80
059940
004440
ENDCHAR
STARTCHAR oe
ENCODING 339
SWIDTH 778 0
DWIDTH 11 0
BBX 11 12 0 -1
BITMAP
014500
2FFFF4
7FFFE0
BFFFD0
7FFFD0
7DFD80
3CBD00
3CBF40
2CBA40
2EF900
1FFF40
009540
ENDCHAR
STARTCHAR Racute
ENCODING 340
SWIDTH 599 0
DWIDTH 8 0
BBX 9 16 0 -1
BITMAP
000600
001F40
00B940
000000
015000
7FFD00
2FFF00
1FFF00
0FFF00
0F5F00
0F6E00
0BFD00
0BBC00
077C00
076C00
011900
ENDCHAR
STARTCHAR racute
ENCODING 341
SWIDTH 616 0
DWIDTH 9 0
BBX 9 16 0 -1
BITMAP
000700
001F80
007A40
000000
015000
7FFE00
2FFF40
1FFF40
0FFF00
0F5F00
0FAE00
0BFD00
0BF800
0B7800
0B7800
051800
ENDCHAR
STARTCHAR Rcommaaccent
ENCODING 342
SWIDTH 599 0
DWIDTH 8 0
BBX 8 20 0 -9
BITMAP
0150
7FFD
2FFF
1FFF
0FFF
0F5F
0F6E
0BFD
0BBC
077C
076C
0119
0000
02A0
03F4
03F4
02B4
0070
0070
0010
ENDCHAR
STARTCHAR rcommaaccent
ENCODING 343
SWIDTH 616 0
DWIDTH 9 0
BBX 9 20 0 -9
BITMAP
015000
7FFE00
2FFF40
1FFF40
0FFF00
0F5F00
0FAE00
0BFD00
0BF800
0B7800
0B7800
051800
000000
02A400
03F400
03F400
02B400
003400
007400
001000
ENDCHAR
STARTCHAR Rcaron
ENCODING 344
SWIDTH 599 0
DWIDTH 8 0
BBX 8 17 0 -1
BITMAP
0909
0F1E
0B7D
07F8
02F4
0150
7FFD
2FFF
1FFF
0FFF
0F5F
0F6E
0BFD
0BBC
077C
076C
0119
ENDCHAR
STARTCHAR rcaron
ENCODING 345
SWIDTH 616 0
DWIDTH 9 0
BBX 9 17 0 -1
BITMAP
080900
1E1E00
0B7D00
07F800
03F000
015000
7FFE00
2FFF40
1FFF40
0FFF00
0F5F00
0FAE00
0BFD00
0BF800
0B7800
0B7800
051800
ENDCHAR
STARTCHAR Sacute
ENCODING 346
SWIDTH 504 0
DWIDTH 7 0
BBX 8 16 0 -1
BITMAP
000C
007E
01F9
0000
0140
1FE0
3FF8
BFF8
BFF8
BDF8
7E40
2FE0
05F4
3DF0
2FE0
0540
ENDCHAR
STARTCHAR sacute
ENCODING 347
SWIDTH 481 0
DWIDTH 7 0
BBX 8 16 0 -1
BITMAP
001C
007E
01E9
0000
0140
1FE0
7FF4
BFF4
BFF4
BDF0
7E50
2FD0
06E0
3DE0
2FC0
0A40
ENDCHAR
STARTCHAR Scircumflex
ENCODING 348
SWIDTH 504 0
DWIDTH 7 0
BBX 7 17 0 -1
BITMAP
0680
0FE0
1FF4
2C78
3418
0140
1FE0
3FF8
BFF8
BFF8
BDF8
7E40
2FE0
05F4
3DF0
2FE0
0540
ENDCHAR
STARTCHAR scircumflex
ENCODING 349
SWIDTH 481 0
DWIDTH 7 0
BBX 7 17 0 -1
BITMAP
0680
0FD0
2EF0
38B4
7028
0140
1FE0
7FF4
BFF4
BFF4
BDF0
7E50
2FD0
06E0
3DE0
2FC0
0A40
ENDCHAR
STARTCHAR Scedilla
ENCODING 350
SWIDTH 504 0
DWIDTH 7 0
BBX 7 16 0 -5
BITMAP
0140
1FE0
3FF8
BFF8
BFF8
BDF8
7E40
2FE0
05F4
3DF0
2FE0
07C0
0340
02D0
0190
0290
ENDCHAR
STARTCHAR scedilla
ENCODING 351
SWIDTH 481 0
DWIDTH 7 0
BBX 7 16 0 -5
BITMAP
0140
1FE0
7FF4
BFF4
BFF4
BDF0
7E50
2FD0
06E0
3DE0
2FC0
0B40
0600
06C0
01C0
0680
ENDCHAR
STARTCHAR Scaron
ENCODING 352
SWIDTH 503 0
DWIDTH 7 0
BBX 7 19 0 -1
BITMAP
2010
7878
3DF4
1FE0
0FD0
0540
0000
0140
1FE0
3FF8
BFF8
BFF8
BDF8
7E40
2FE0
05F4
3DF0
2FE0
0540
ENDCHAR
STARTCHAR scaron
ENCODING 353
SWIDTH 479 0
DWIDTH 7 0
BBX 7 19 0 -1
BITMAP
1010
B474
3CF0
2FE0
1FC0
0540
0000
0140
1FE0
7FF4
BFF4
BFF4
BDF0
7E50
2FD0
06E0
3DE0
2FC0
0A40
ENDCHAR
STARTCHAR Tcommaaccent
ENCODING 354
SWIDTH 622 0
DWIDTH 9 0
BBX 8 17 0 -6
BITMAP
0550
7FFF
3FFE
2FFE
2FFD
1BE9
02E0
02E0
02E0
01E0
01E0
01D0
01D0
01D0
01B4
0070
00A0
ENDCHAR
STARTCHAR tcommaaccent
ENCODING 355
SWIDTH 683 0
DWIDTH 10 0
BBX 9 17 0 -6
BITMAP
055500
7FFFC0
3FFF40
2FFF40
1FFF00
1AFA00
00F400
00F400
00F400
00F400
00B400
00B000
007000
00A000
006800
006800
006400
ENDCHAR
STARTCHAR Tcaron
ENCODING 356
SWIDTH 622 0
DWIDTH 9 0
BBX 8 18 0 -2
BITMAP
1808
1E2D
0F7C
0BF4
07F0
0550
7FFF
3FFE
2FFE
2FFD
1BE9
02E0
02E0
02E0
01E0
01E0
01D0
0100
ENDCHAR
STARTCHAR tcaron
ENCODING 357
SWIDTH 622 0
DWIDTH 9 0
BBX 8 18 0 -2
BITMAP
0809
1E1E
0B7D
07F8
03F4
0550
7FFF
3FFE
2FFE
2FFD
1BE9
02E0
02E0
02E0
01E0
01E0
01D0
0100
ENDCHAR
STARTCHAR Utilde
ENCODING 360
SWIDTH 637 0
DWIDTH 9 0
BBX 9 15 0 -1
BITMAP
187800
2FFD00
0BA800
151000
7F2F40
3F3F00
2F3E00
2F3D00
1F3C00
1E3C00
1F3C00
1F7800
0FF800
0BA400
001000
ENDCHAR
STARTCHAR utilde
ENCODING 361
SWIDTH 708 0
DWIDTH 10 0
BBX 10 14 0 0
BITMAP
092800
1FFE00
079900
050000
7F4F90
2F5FD0
2F8F80
1F8F40
0F8F40
0F5F00
0F9F00
0B9E00
07FE00
02AD00
ENDCHAR
STARTCHAR Umacron
ENCODING 362
SWIDTH 637 0
DWIDTH 9 0
BBX 9 14 0 -1
BITMAP
0AA800
0BE800
151000
7F2F40
3F3F00
2F3E00
2F3D00
1F3C00
1E3C00
1F3C00
1F7800
0FF800
0BA400
001000
ENDCHAR
STARTCHAR umacron
ENCODING 363
SWIDTH 708 0
DWIDTH 10 0
BBX 10 13 0 0
BITMAP
06A900
06FD00
050000
7F4F90
2F5FD0
2F8F80
1F8F40
0F8F40
0F5F00
0F9F00
0B9E00
07FE00
02AD00
ENDCHAR
STARTCHAR Ubreve
ENCODING 364
SWIDTH 637 0
DWIDTH 9 0
BBX 9 16 0 -1
BITMAP
0B0900
076D00
06FC00
006400
151000
7F2F40
3F3F00
2F3E00
2F3D00
1F3C00
1E3C00
1F3C00
1F7800
0FF800
0BA400
001000
ENDCHAR
STARTCHAR ubreve
ENCODING 365
SWIDTH 708 0
DWIDTH 10 0
BBX 10 15 0 0
BITMAP
034600
039F00
02FE00
005800
050000
7F4F90
2F5FD0
2F8F80
1F8F40
0F8F40
0F5F00
0F9F00
0B9E00
07FE00
02AD00
ENDCHAR
STARTCHAR Uring
ENCODING 366
SWIDTH 637 0
DWIDTH 9 0
BBX 9 16 0 -1
BITMAP
02E000
076400
036400
01E000
151000
7F2F40
3F3F00
2F3E00
2F3D00
1F3C00
1E3C00
1F3C00
1F7800
0FF800
0BA400
001000
ENDCHAR
STARTCHAR uring
ENCODING 367
SWIDTH 708 0
DWIDTH 10 0
BBX 10 15 0 0
BITMAP
00F800
029C00
019800
00B400
050000
7F4F90
2F5FD0
2F8F80
1F8F40
0F8F40
0F5F00
0F9F00
0B9E00
07FE00
02AD00
ENDCHAR
STARTCHAR Uhungarumlaut
ENCODING 368
SWIDTH 637 0
DWIDTH 9 0
BBX 9 17 0 -1
BITMAP
010400
078E00
0B6E00
0D3800
186000
151000
7F2F40
3F3F00
2F3E00
2F3D00
1F3C00
1E3C00
1F3C00
1F7800
0FF800
0BA400
001000
ENDCHAR
STARTCHAR uhungarumlaut
ENCODING 369
SWIDTH 708 0
DWIDTH 10 0
BBX 10 16 0 0
BITMAP
010400
02CB80
078F00
0B1D00
0C2400
050000
7F4F90
2F5FD0
2F8F80
1F8F40
0F8F40
0F5F00
0F9F00
0B9E00
07FE00
02AD00
ENDCHAR
STARTCHAR Uogonek
ENCODING 370
SWIDTH 637 0
DWIDTH 9 0
BBX 9 15 0 -4
BITMAP
151000
7F2F40
3F3F00
2F3E00
2F3D00
1F3C00
1E3C00
1F3C00
1F7800
0FF800
0BF400
00E000
00E000
00B900
007E00
ENDCHAR
STARTCHAR uogonek
ENCODING 371
SWIDTH 662 0
DWIDTH 9 0
BBX 10 15 0 -4
BITMAP
050000
7F4F90
2F5FC0
2F4F80
1F8F40
1F9F40
0F5F00
0F9F00
0BAE00
07FE00
02FD00
00D000
01D000
00F900
007D00
ENDCHAR
STARTCHAR Wcircumflex
ENCODING 372
SWIDTH 777 0
DWIDTH 11 0
BBX 11 17 0 0
BITMAP
00A400
01FC00
03EE00
074B00
0A0340
000000
002140
6F76F4
2F7BE0
0FBFC0
0FFF40
07FF00
03FF00
02FF00
02EE00
01DD00
009C00
ENDCHAR
STARTCHAR wcircumflex
ENCODING 373
SWIDTH 704 0
DWIDTH 10 0
BBX 10 16 0 0
BITMAP
01A400
02F800
07FD00
0B1E00
0D0600
001000
7DA7D0
2EB7C0
0EFB40
0FFF00
0BFE00
07FE00
03FE00
02EE00
01DD00
009D00
ENDCHAR
STARTCHAR Ycircumflex
ENCODING 374
SWIDTH 688 0
DWIDTH 10 0
BBX 10 18 0 -1
BITMAP
01A000
03F800
07BC00
0B1E00
0C0A00
000000
050400
6F4F90
0BDF40
02FE00
01FC00
00FC00
00BC00
007800
007800
003800
003800
001000
ENDCHAR
STARTCHAR ycircumflex
ENCODING 375
SWIDTH 604 0
DWIDTH 8 0
BBX 8 17 0 -1
BITMAP
0290
0BF0
0FF4
1D3C
241C
0410
7E3E
0B7C
07F4
03F0
02E0
02E0
01E0
01E0
01E0
01D0
0190
ENDCHAR
STARTCHAR Ydieresis
ENCODING 376
SWIDTH 688 0
DWIDTH 10 0
BBX 10 16 0 -1
BITMAP
051640
1F5F40
1F5F40
1A5A40
050400
6F4F90
0BDF40
02FE00
01FC00
00FC00
00BC00
007800
007800
003800
003800
001000
ENDCHAR
STARTCHAR Zacute
ENCODING 377
SWIDTH 695 0
DWIDTH 10 0
BBX 10 16 0 -1
BITMAP
000180
0007D0
002E50
000000
055400
7FFF90
3FFFC0
2FFF40
1FFF00
19BD00
01F400
02E000
02C000
07F800
0BF400
001000
ENDCHAR
STARTCHAR zacute
ENCODING 378
SWIDTH 622 0
DWIDTH 9 0
BBX 9 16 0 -1
BITMAP
000700
001F80
007A40
000000
055000
7FFF00
3FFE00
1FFD00
1FFC00
0DF800
01E000
02D000
02C000
03E400
07F400
015000
ENDCHAR
STARTCHAR Zdotaccent
ENCODING 379
SWIDTH 695 0
DWIDTH 10 0
BBX 10 17 0 -1
BITMAP
015400
02FC00
02FC00
02FC00
01A800
055400
7FFF90
3FFFC0
2FFF40
1FFF00
19BD00
01F400
02E000
02C000
07F800
0BF400
001000
ENDCHAR
STARTCHAR zdotaccent
ENCODING 380
SWIDTH 622 0
DWIDTH 9 0
BBX 8 17 0 -1
BITMAP
0550
0BF0
07F0
07F0
06A0
0550
7FFF
3FFE
1FFD
1FFC
0DF8
01E0
02D0
02C0
03E4
07F4
0150
ENDCHAR
STARTCHAR Zcaron
ENCODING 381
SWIDTH 693 0
DWIDTH 10 0
BBX 10 19 0 -1
BITMAP
050500
0B0F00
07AE00
03FC00
02F800
005000
000000
055400
7FFF90
3FFFC0
2FFF40
1FFF00
19BD00
01F400
02D000
02C000
07F800
0BF400
001000
ENDCHAR
STARTCHAR zcaron
ENCODING 382
SWIDTH 621 0
DWIDTH 9 0
BBX 8 19 0 -1
BITMAP
0808
1D2D
0F7C
0BF4
07F0
0000
0000
0550
7FFF
3FFE
1FFD
1FFC
0DF8
01E0
02D0
02C0
03E4
07F4
0150
ENDCHAR
STARTCHAR DZ
ENCODING 497
SWIDTH 194 0
DWIDTH 3 0
BBX 1 1 0 0
BITMAP
00
ENDCHAR
STARTCHAR Dz
ENCODING 498
SWIDTH 194 0
DWIDTH 3 0
BBX 1 1 0 0
BITMAP
00
ENDCHAR
STARTCHAR dotlessj
ENCODING 567
SWIDTH 458 0
DWIDTH 6 0
BBX 6 12 0 -1
BITMAP
0500
0FE0
0BE0
07D0
07D0
07C0
07C0
57C0
E7C0
FB80
7F40
0500
ENDCHAR
STARTCHAR circumflex
ENCODING 710
SWIDTH 528 0
DWIDTH 7 0
BBX 7 5 0 10
BITMAP
0680
0FD0
2EF0
38B4
7028
ENDCHAR
STARTCHAR caron
ENCODING 711
SWIDTH 486 0
DWIDTH 7 0
BBX 7 5 0 10
BITMAP
6020
78B4
3DF0
2FD0
0FC0
ENDCHAR
STARTCHAR breve
ENCODING 728
SWIDTH 464 0
DWIDTH 7 0
BBX 6 4 0 -1
BITMAP
74A0
39E0
2FD0
0580
ENDCHAR
STARTCHAR dotaccent
ENCODING 729
SWIDTH 388 0
DWIDTH 5 0
BBX 4 5 1 3
BITMAP
55
FE
FE
FE
A9
ENDCHAR
STARTCHAR ring
ENCODING 730
SWIDTH 370 0
DWIDTH 5 0
BBX 5 4 0 4
BITMAP
2E00
7640
3640
2D00
ENDCHAR
STARTCHAR ogonek
ENCODING 731
SWIDTH 360 0
DWIDTH 5 0
BBX 5 5 0 0
BITMAP
2400
3400
7400
3E40
1F40
ENDCHAR
STARTCHAR tilde
ENCODING 732
SWIDTH 535 0
DWIDTH 8 0
BBX 7 3 0 -1
BITMAP
24A0
7FF8
1E64
ENDCHAR
STARTCHAR hungarumlaut
ENCODING 733
SWIDTH 554 0
DWIDTH 8 0
BBX 8 5 0 10
BITMAP
0410
0E39
2D78
38A0
6080
ENDCHAR
STARTCHAR dotaccentcmb
ENCODING 775
SWIDTH 396 0
DWIDTH 6 0
BBX 4 5 1 5
BITMAP
69
FE
FE
FE
A5
ENDCHAR
STARTCHAR uni030F
ENCODING 783
SWIDTH 549 0
DWIDTH 8 0
BBX 7 5 0 10
BITMAP
0410
78F0
3CB4
0D38
060C
ENDCHAR
STARTCHAR uni0311
ENCODING 785
SWIDTH 490 0
DWIDTH 7 0
BBX 6 4 0 5
BITMAP
0A40
2FD0
39F0
6460
ENDCHAR
STARTCHAR uni0326
ENCODING 806
SWIDTH 360 0
DWIDTH 5 0
BBX 4 7 1 -2
BITMAP
A8
FD
FD
AD
1C
1C
04
ENDCHAR
STARTCHAR endash
ENCODING 8211
SWIDTH 478 0
DWIDTH 7 0
BBX 6 3 0 4
BITMAP
2AA0
7FE0
2FE0
ENDCHAR
STARTCHAR emdash
ENCODING 8212
SWIDTH 567 0
DWIDTH 8 0
BBX 7 3 0 4
BITMAP
2AA8
7FFC
2EE8
ENDCHAR
STARTCHAR quoteleft
ENCODING 8216
SWIDTH 373 0
DWIDTH 5 0
BBX 5 8 0 3
BITMAP
1000
3800
3400
3A40
3F40
7F40
3F40
1640
ENDCHAR
STARTCHAR quoteright
ENCODING 8217
SWIDTH 369 0
DWIDTH 5 0
BBX 5 8 0 3
BITMAP
1000
7F40
7F40
7F40
6F40
0740
0700
0500
ENDCHAR
STARTCHAR quotesinglbase
ENCODING 8218
SWIDTH 369 0
DWIDTH 5 0
BBX 5 8 0 3
BITMAP
1000
7F40
7F40
7F40
6F40
0740
0700
0500
ENDCHAR
STARTCHAR quotedblleft
ENCODING 8220
SWIDTH 687 0
DWIDTH 10 0
BBX 9 8 0 3
BITMAP
100400
381C00
342800
3A6E40
3F6FC0
7F6F80
3F6F80
165540
ENDCHAR
STARTCHAR quotedblright
ENCODING 8221
SWIDTH 677 0
DWIDTH 9 0
BBX 9 8 0 3
BITMAP
150400
7F2F80
7F2F80
7F2F80
7F2F80
070340
070340
050200
ENDCHAR
STARTCHAR quotedblbase
ENCODING 8222
SWIDTH 697 0
DWIDTH 10 0
BBX 9 8 0 -5
BITMAP
251940
7F6FC0
7F6FC0
7F6FC0
6B5AC0
0702C0
070280
010100
ENDCHAR
STARTCHAR ellipsis
ENCODING 8230
SWIDTH 1462 0
DWIDTH 20 0
BBX 20 5 0 0
BITMAP
6F406E00AE
3F407F00BE
3F407F00BE
3F407F00BE
1400100050
ENDCHAR
STARTCHAR guilsinglleft
ENCODING 8249
SWIDTH 459 0
DWIDTH 6 0
BBX 6 8 0 1
BITMAP
0690
0FD0
2F80
7F00
7E00
2F40
0FC0
02E0
ENDCHAR
STARTCHAR guilsinglright
ENCODING 8250
SWIDTH 432 0
DWIDTH 6 0
BBX 6 8 0 1
BITMAP
6A00
3F00
1F80
0BD0
07D0
0F80
2F40
7900
ENDCHAR
STARTCHAR fraction
ENCODING 8260
SWIDTH 371 0
DWIDTH 5 0
BBX 5 12 0 -1
BITMAP
1500
BF80
2F40
2F40
2F00
2F00
1F00
1F00
0E00
0E00
0E00
0100
ENDCHAR
STARTCHAR Euro
ENCODING 8364
SWIDTH 587 0
DWIDTH 8 0
BBX 8 14 0 -3
BITMAP
0150
0BF8
1FFE
2FFE
1FFE
1F7E
AF69
1F40
6F68
0BBC
07F4
0160
0140
0040
ENDCHAR
STARTCHAR trademark
ENCODING 8482
SWIDTH 785 0
DWIDTH 11 0
BBX 11 8 0 3
BITMAP
551550
BF9EF4
7F5FF0
2E4FF0
0D0FF0
0D0AA0
0D0960
040000
ENDCHAR
STARTCHAR minus
ENCODING 8722
SWIDTH 478 0
DWIDTH 7 0
BBX 6 3 0 4
BITMAP
2AA0
7FE0
2FE0
ENDCHAR
STARTCHAR commaaccent
ENCODING 63171
SWIDTH 360 0
DWIDTH 5 0
BBX 5 7 0 -2
BITMAP
6A00
7F40
7F40
7F40
1740
0700
0700
ENDCHAR
STARTCHAR .notdef
ENCODING -1
SWIDTH 365 0
DWIDTH 5 0
BBX 5 10 0 0
BITMAP
5500
4140
4140
4140
4140
4140
4140
4140
4140
5640
ENDCHAR
STARTCHAR .null
ENCODING -1
SWIDTH 0 0
DWIDTH 0 0
BBX 1 1 0 0
BITMAP
00
ENDCHAR
STARTCHAR nonmarkingreturn
ENCODING -1
SWIDTH 333 0
DWIDTH 5 0
BBX 1 1 0 0
BITMAP
00
ENDCHAR
ENDFONT
